<?xml version="1.0" encoding="UTF-8" standalone="no"?>
<svg
   inkscape:version="1.2.1 (9c6d41e410, 2022-07-14)"
   sodipodi:docname="qr-code-vspj_v2.svg"
   xml:space="preserve"
   enable-background="new 0 0 2320 2320"
   viewBox="0 0 2900 2900"
   height="2900"
   width="2900"
   y="0px"
   x="0px"
   id="Layer_1"
   version="1.1"
   xmlns:inkscape="http://www.inkscape.org/namespaces/inkscape"
   xmlns:sodipodi="http://sodipodi.sourceforge.net/DTD/sodipodi-0.dtd"
   xmlns="http://www.w3.org/2000/svg"
   xmlns:svg="http://www.w3.org/2000/svg"><defs
   id="defs1473" /><sodipodi:namedview
   id="namedview1471"
   pagecolor="#ffffff"
   bordercolor="#000000"
   borderopacity="0.25"
   inkscape:showpageshadow="2"
   inkscape:pageopacity="0.0"
   inkscape:pagecheckerboard="0"
   inkscape:deskcolor="#d1d1d1"
   showgrid="false"
   inkscape:zoom="0.1106681"
   inkscape:cx="1703.2912"
   inkscape:cy="2019.5522"
   inkscape:window-width="1920"
   inkscape:window-height="1001"
   inkscape:window-x="-9"
   inkscape:window-y="-9"
   inkscape:window-maximized="1"
   inkscape:current-layer="Layer_1" />
<g
   transform="translate(450,450)"
   id="g1468"><g
     transform="matrix(0.16,0,0,0.16,800,0)"
     id="g8"><g
       style="fill:#00aad4;fill-opacity:1"
       id="g6">
<path
   d="M 250,0 C 388.077,0 500,111.93 500,250 500,388.077 388.077,500 250,500 111.93,500 0,388.077 0,250 0,111.93 111.93,0 250,0 Z"
   id="path4"
   style="fill:#00aad4;fill-opacity:1" />
</g></g><g
     transform="matrix(0.16,0,0,0.16,880,0)"
     id="g14"><g
       style="fill:#00aad4;fill-opacity:1"
       id="g12">
<path
   d="M 250,0 C 388.077,0 500,111.93 500,250 500,388.077 388.077,500 250,500 111.93,500 0,388.077 0,250 0,111.93 111.93,0 250,0 Z"
   id="path10"
   style="fill:#1d009c;fill-opacity:1" />
</g></g><g
     transform="matrix(0.16,0,0,0.16,1040,0)"
     id="g20"><g
       style="fill:#00aad4;fill-opacity:1"
       id="g18">
<path
   d="M 250,0 C 388.077,0 500,111.93 500,250 500,388.077 388.077,500 250,500 111.93,500 0,388.077 0,250 0,111.93 111.93,0 250,0 Z"
   id="path16"
   style="fill:#00aad4;fill-opacity:1" />
</g></g><g
     transform="matrix(0.16,0,0,0.16,1200,0)"
     id="g26"><g
       style="fill:#00aad4;fill-opacity:1"
       id="g24">
<path
   d="M 250,0 C 388.077,0 500,111.93 500,250 500,388.077 388.077,500 250,500 111.93,500 0,388.077 0,250 0,111.93 111.93,0 250,0 Z"
   id="path22"
   style="fill:#1d009c;fill-opacity:1" />
</g></g><g
     transform="matrix(0.16,0,0,0.16,720,80)"
     id="g32"><g
       style="fill:#00aad4;fill-opacity:1"
       id="g30">
<path
   d="M 250,0 C 388.077,0 500,111.93 500,250 500,388.077 388.077,500 250,500 111.93,500 0,388.077 0,250 0,111.93 111.93,0 250,0 Z"
   id="path28"
   style="fill:#00aad4;fill-opacity:1" />
</g></g><g
     transform="matrix(0.16,0,0,0.16,800,80)"
     id="g38"><g
       style="fill:#00aad4;fill-opacity:1"
       id="g36">
<path
   d="M 250,0 C 388.077,0 500,111.93 500,250 500,388.077 388.077,500 250,500 111.93,500 0,388.077 0,250 0,111.93 111.93,0 250,0 Z"
   id="path34"
   style="fill:#00aad4;fill-opacity:1" />
</g></g><g
     transform="matrix(0.16,0,0,0.16,880,80)"
     id="g44"><g
       style="fill:#00aad4;fill-opacity:1"
       id="g42">
<path
   d="M 250,0 C 388.077,0 500,111.93 500,250 500,388.077 388.077,500 250,500 111.93,500 0,388.077 0,250 0,111.93 111.93,0 250,0 Z"
   id="path40"
   style="fill:#1d009c;fill-opacity:1" />
</g></g><g
     transform="matrix(0.16,0,0,0.16,1040,80)"
     id="g50"><g
       style="fill:#00aad4;fill-opacity:1"
       id="g48">
<path
   d="M 250,0 C 388.077,0 500,111.93 500,250 500,388.077 388.077,500 250,500 111.93,500 0,388.077 0,250 0,111.93 111.93,0 250,0 Z"
   id="path46"
   style="fill:#00aad4;fill-opacity:1" />
</g></g><g
     transform="matrix(0.16,0,0,0.16,1200,80)"
     id="g56"><g
       style="fill:#00aad4;fill-opacity:1"
       id="g54">
<path
   d="M 250,0 C 388.077,0 500,111.93 500,250 500,388.077 388.077,500 250,500 111.93,500 0,388.077 0,250 0,111.93 111.93,0 250,0 Z"
   id="path52"
   style="fill:#1d009c;fill-opacity:1" />
</g></g><g
     transform="matrix(0.16,0,0,0.16,1280,80)"
     id="g62"><g
       style="fill:#00aad4;fill-opacity:1"
       id="g60">
<path
   d="M 250,0 C 388.077,0 500,111.93 500,250 500,388.077 388.077,500 250,500 111.93,500 0,388.077 0,250 0,111.93 111.93,0 250,0 Z"
   id="path58"
   style="fill:#00aad4;fill-opacity:1" />
</g></g><g
     transform="matrix(0.16,0,0,0.16,640,160)"
     id="g68"><g
       style="fill:#00aad4;fill-opacity:1"
       id="g66">
<path
   d="M 250,0 C 388.077,0 500,111.93 500,250 500,388.077 388.077,500 250,500 111.93,500 0,388.077 0,250 0,111.93 111.93,0 250,0 Z"
   id="path64"
   style="fill:#00aad4;fill-opacity:1" />
</g></g><g
     transform="matrix(0.16,0,0,0.16,720,160)"
     id="g74"><g
       style="fill:#00aad4;fill-opacity:1"
       id="g72">
<path
   d="M 250,0 C 388.077,0 500,111.93 500,250 500,388.077 388.077,500 250,500 111.93,500 0,388.077 0,250 0,111.93 111.93,0 250,0 Z"
   id="path70"
   style="fill:#2d00f2;fill-opacity:1" />
</g></g><g
     transform="matrix(0.16,0,0,0.16,880,160)"
     id="g80"><g
       style="fill:#00aad4;fill-opacity:1"
       id="g78">
<path
   d="M 250,0 C 388.077,0 500,111.93 500,250 500,388.077 388.077,500 250,500 111.93,500 0,388.077 0,250 0,111.93 111.93,0 250,0 Z"
   id="path76"
   style="fill:#1d009c;fill-opacity:1" />
</g></g><g
     transform="matrix(0.16,0,0,0.16,960,160)"
     id="g86"><g
       style="fill:#00aad4;fill-opacity:1"
       id="g84">
<path
   d="M 250,0 C 388.077,0 500,111.93 500,250 500,388.077 388.077,500 250,500 111.93,500 0,388.077 0,250 0,111.93 111.93,0 250,0 Z"
   id="path82"
   style="fill:#00aad4;fill-opacity:1" />
</g></g><g
     transform="matrix(0.16,0,0,0.16,1200,160)"
     id="g92"><g
       style="fill:#00aad4;fill-opacity:1"
       id="g90">
<path
   d="M 250,0 C 388.077,0 500,111.93 500,250 500,388.077 388.077,500 250,500 111.93,500 0,388.077 0,250 0,111.93 111.93,0 250,0 Z"
   id="path88"
   style="fill:#1d009c;fill-opacity:1" />
</g></g><g
     transform="matrix(0.16,0,0,0.16,640,240)"
     id="g98"><g
       style="fill:#00aad4;fill-opacity:1"
       id="g96">
<path
   d="M 250,0 C 388.077,0 500,111.93 500,250 500,388.077 388.077,500 250,500 111.93,500 0,388.077 0,250 0,111.93 111.93,0 250,0 Z"
   id="path94"
   style="fill:#2d00f2;fill-opacity:1" />
</g></g><g
     transform="matrix(0.16,0,0,0.16,720,240)"
     id="g104"><g
       style="fill:#00aad4;fill-opacity:1"
       id="g102">
<path
   d="M 250,0 C 388.077,0 500,111.93 500,250 500,388.077 388.077,500 250,500 111.93,500 0,388.077 0,250 0,111.93 111.93,0 250,0 Z"
   id="path100"
   style="fill:#00aad4;fill-opacity:1" />
</g></g><g
     transform="matrix(0.16,0,0,0.16,800,240)"
     id="g110"><g
       style="fill:#00aad4;fill-opacity:1"
       id="g108">
<path
   d="M 250,0 C 388.077,0 500,111.93 500,250 500,388.077 388.077,500 250,500 111.93,500 0,388.077 0,250 0,111.93 111.93,0 250,0 Z"
   id="path106"
   style="fill:#2d00f2;fill-opacity:1" />
</g></g><g
     transform="matrix(0.16,0,0,0.16,1040,240)"
     id="g116"><g
       style="fill:#00aad4;fill-opacity:1"
       id="g114">
<path
   d="M 250,0 C 388.077,0 500,111.93 500,250 500,388.077 388.077,500 250,500 111.93,500 0,388.077 0,250 0,111.93 111.93,0 250,0 Z"
   id="path112"
   style="fill:#1d009c;fill-opacity:1" />
</g></g><g
     transform="matrix(0.16,0,0,0.16,1120,240)"
     id="g122"><g
       style="fill:#00aad4;fill-opacity:1"
       id="g120">
<path
   d="M 250,0 C 388.077,0 500,111.93 500,250 500,388.077 388.077,500 250,500 111.93,500 0,388.077 0,250 0,111.93 111.93,0 250,0 Z"
   id="path118"
   style="fill:#00aad4;fill-opacity:1" />
</g></g><g
     transform="matrix(0.16,0,0,0.16,1200,240)"
     id="g128"><g
       style="fill:#00aad4;fill-opacity:1"
       id="g126">
<path
   d="M 250,0 C 388.077,0 500,111.93 500,250 500,388.077 388.077,500 250,500 111.93,500 0,388.077 0,250 0,111.93 111.93,0 250,0 Z"
   id="path124"
   style="fill:#1d009c;fill-opacity:1" />
</g></g><g
     transform="matrix(0.16,0,0,0.16,640,320)"
     id="g134"><g
       style="fill:#00aad4;fill-opacity:1"
       id="g132">
<path
   d="M 250,0 C 388.077,0 500,111.93 500,250 500,388.077 388.077,500 250,500 111.93,500 0,388.077 0,250 0,111.93 111.93,0 250,0 Z"
   id="path130"
   style="fill:#2d00f2;fill-opacity:1" />
</g></g><g
     transform="matrix(0.16,0,0,0.16,880,320)"
     id="g140"><g
       style="fill:#00aad4;fill-opacity:1"
       id="g138">
<path
   d="M 250,0 C 388.077,0 500,111.93 500,250 500,388.077 388.077,500 250,500 111.93,500 0,388.077 0,250 0,111.93 111.93,0 250,0 Z"
   id="path136"
   style="fill:#00aad4;fill-opacity:1" />
</g></g><g
     transform="matrix(0.16,0,0,0.16,960,320)"
     id="g146"><g
       style="fill:#00aad4;fill-opacity:1"
       id="g144">
<path
   d="M 250,0 C 388.077,0 500,111.93 500,250 500,388.077 388.077,500 250,500 111.93,500 0,388.077 0,250 0,111.93 111.93,0 250,0 Z"
   id="path142"
   style="fill:#00aad4;fill-opacity:1" />
</g></g><g
     transform="matrix(0.16,0,0,0.16,1040,320)"
     id="g152"><g
       style="fill:#00aad4;fill-opacity:1"
       id="g150">
<path
   d="M 250,0 C 388.077,0 500,111.93 500,250 500,388.077 388.077,500 250,500 111.93,500 0,388.077 0,250 0,111.93 111.93,0 250,0 Z"
   id="path148"
   style="fill:#1d009c;fill-opacity:1" />
</g></g><g
     transform="matrix(0.16,0,0,0.16,640,400)"
     id="g158"><g
       style="fill:#00aad4;fill-opacity:1"
       id="g156">
<path
   d="M 250,0 C 388.077,0 500,111.93 500,250 500,388.077 388.077,500 250,500 111.93,500 0,388.077 0,250 0,111.93 111.93,0 250,0 Z"
   id="path154"
   style="fill:#00aad4;fill-opacity:1" />
</g></g><g
     transform="matrix(0.16,0,0,0.16,720,400)"
     id="g164"><g
       style="fill:#00aad4;fill-opacity:1"
       id="g162">
<path
   d="M 250,0 C 388.077,0 500,111.93 500,250 500,388.077 388.077,500 250,500 111.93,500 0,388.077 0,250 0,111.93 111.93,0 250,0 Z"
   id="path160"
   style="fill:#00aad4;fill-opacity:1" />
</g></g><g
     transform="matrix(0.16,0,0,0.16,1040,400)"
     id="g170"><g
       style="fill:#00aad4;fill-opacity:1"
       id="g168">
<path
   d="M 250,0 C 388.077,0 500,111.93 500,250 500,388.077 388.077,500 250,500 111.93,500 0,388.077 0,250 0,111.93 111.93,0 250,0 Z"
   id="path166"
   style="fill:#1d009c;fill-opacity:1" />
</g></g><g
     transform="matrix(0.16,0,0,0.16,1280,400)"
     id="g176"><g
       style="fill:#00aad4;fill-opacity:1"
       id="g174">
<path
   d="M 250,0 C 388.077,0 500,111.93 500,250 500,388.077 388.077,500 250,500 111.93,500 0,388.077 0,250 0,111.93 111.93,0 250,0 Z"
   id="path172"
   style="fill:#1d009c;fill-opacity:1" />
</g></g><g
     transform="matrix(0.16,0,0,0.16,640,480)"
     id="g182"><g
       style="fill:#00aad4;fill-opacity:1"
       id="g180">
<path
   d="M 250,0 C 388.077,0 500,111.93 500,250 500,388.077 388.077,500 250,500 111.93,500 0,388.077 0,250 0,111.93 111.93,0 250,0 Z"
   id="path178"
   style="fill:#2d00f2;fill-opacity:1" />
</g></g><g
     transform="matrix(0.16,0,0,0.16,800,480)"
     id="g188"><g
       style="fill:#00aad4;fill-opacity:1"
       id="g186">
<path
   d="M 250,0 C 388.077,0 500,111.93 500,250 500,388.077 388.077,500 250,500 111.93,500 0,388.077 0,250 0,111.93 111.93,0 250,0 Z"
   id="path184"
   style="fill:#00aad4;fill-opacity:1" />
</g></g><g
     transform="matrix(0.16,0,0,0.16,960,480)"
     id="g194"><g
       style="fill:#00aad4;fill-opacity:1"
       id="g192">
<path
   d="M 250,0 C 388.077,0 500,111.93 500,250 500,388.077 388.077,500 250,500 111.93,500 0,388.077 0,250 0,111.93 111.93,0 250,0 Z"
   id="path190"
   style="fill:#00aad4;fill-opacity:1" />
</g></g><g
     transform="matrix(0.16,0,0,0.16,1120,480)"
     id="g200"><g
       style="fill:#00aad4;fill-opacity:1"
       id="g198">
<path
   d="M 250,0 C 388.077,0 500,111.93 500,250 500,388.077 388.077,500 250,500 111.93,500 0,388.077 0,250 0,111.93 111.93,0 250,0 Z"
   id="path196"
   style="fill:#00aad4;fill-opacity:1" />
</g></g><g
     transform="matrix(0.16,0,0,0.16,1280,480)"
     id="g206"><g
       style="fill:#00aad4;fill-opacity:1"
       id="g204">
<path
   d="M 250,0 C 388.077,0 500,111.93 500,250 500,388.077 388.077,500 250,500 111.93,500 0,388.077 0,250 0,111.93 111.93,0 250,0 Z"
   id="path202"
   style="fill:#1d009c;fill-opacity:1" />
</g></g><g
     transform="matrix(0.16,0,0,0.16,640,560)"
     id="g212"><g
       style="fill:#00aad4;fill-opacity:1"
       id="g210">
<path
   d="M 250,0 C 388.077,0 500,111.93 500,250 500,388.077 388.077,500 250,500 111.93,500 0,388.077 0,250 0,111.93 111.93,0 250,0 Z"
   id="path208"
   style="fill:#00aad4;fill-opacity:1" />
</g></g><g
     transform="matrix(0.16,0,0,0.16,960,560)"
     id="g218"><g
       style="fill:#00aad4;fill-opacity:1"
       id="g216">
<path
   d="M 250,0 C 388.077,0 500,111.93 500,250 500,388.077 388.077,500 250,500 111.93,500 0,388.077 0,250 0,111.93 111.93,0 250,0 Z"
   id="path214"
   style="fill:#1d009c;fill-opacity:1" />
</g></g><g
     transform="matrix(0.16,0,0,0.16,1120,560)"
     id="g224"><g
       style="fill:#00aad4;fill-opacity:1"
       id="g222">
<path
   d="M 250,0 C 388.077,0 500,111.93 500,250 500,388.077 388.077,500 250,500 111.93,500 0,388.077 0,250 0,111.93 111.93,0 250,0 Z"
   id="path220"
   style="fill:#00aad4;fill-opacity:1" />
</g></g><g
     transform="matrix(0.16,0,0,0.16,0,640)"
     id="g230"><g
       style="fill:#00aad4;fill-opacity:1"
       id="g228">
<path
   d="M 250,0 C 388.077,0 500,111.93 500,250 500,388.077 388.077,500 250,500 111.93,500 0,388.077 0,250 0,111.93 111.93,0 250,0 Z"
   id="path226"
   style="fill:#2d00f2;fill-opacity:1" />
</g></g><g
     transform="matrix(0.16,0,0,0.16,160,640)"
     id="g236"><g
       style="fill:#00aad4;fill-opacity:1"
       id="g234">
<path
   d="M 250,0 C 388.077,0 500,111.93 500,250 500,388.077 388.077,500 250,500 111.93,500 0,388.077 0,250 0,111.93 111.93,0 250,0 Z"
   id="path232"
   style="fill:#00aad4;fill-opacity:1" />
</g></g><g
     transform="matrix(0.16,0,0,0.16,240,640)"
     id="g242"><g
       style="fill:#00aad4;fill-opacity:1"
       id="g240">
<path
   d="M 250,0 C 388.077,0 500,111.93 500,250 500,388.077 388.077,500 250,500 111.93,500 0,388.077 0,250 0,111.93 111.93,0 250,0 Z"
   id="path238"
   style="fill:#2d00f2;fill-opacity:1" />
</g></g><g
     transform="matrix(0.16,0,0,0.16,320,640)"
     id="g248"><g
       style="fill:#00aad4;fill-opacity:1"
       id="g246">
<path
   d="M 250,0 C 388.077,0 500,111.93 500,250 500,388.077 388.077,500 250,500 111.93,500 0,388.077 0,250 0,111.93 111.93,0 250,0 Z"
   id="path244"
   style="fill:#00aad4;fill-opacity:1" />
</g></g><g
     transform="matrix(0.16,0,0,0.16,400,640)"
     id="g254"><g
       style="fill:#00aad4;fill-opacity:1"
       id="g252">
<path
   d="M 250,0 C 388.077,0 500,111.93 500,250 500,388.077 388.077,500 250,500 111.93,500 0,388.077 0,250 0,111.93 111.93,0 250,0 Z"
   id="path250"
   style="fill:#2d00f2;fill-opacity:1" />
</g></g><g
     transform="matrix(0.16,0,0,0.16,480,640)"
     id="g260"><g
       style="fill:#00aad4;fill-opacity:1"
       id="g258">
<path
   d="M 250,0 C 388.077,0 500,111.93 500,250 500,388.077 388.077,500 250,500 111.93,500 0,388.077 0,250 0,111.93 111.93,0 250,0 Z"
   id="path256"
   style="fill:#00aad4;fill-opacity:1" />
</g></g><g
     transform="matrix(0.16,0,0,0.16,720,640)"
     id="g266"><g
       style="fill:#00aad4;fill-opacity:1"
       id="g264">
<path
   d="M 250,0 C 388.077,0 500,111.93 500,250 500,388.077 388.077,500 250,500 111.93,500 0,388.077 0,250 0,111.93 111.93,0 250,0 Z"
   id="path262"
   style="fill:#2d00f2;fill-opacity:1" />
</g></g><g
     transform="matrix(0.16,0,0,0.16,800,640)"
     id="g272"><g
       style="fill:#00aad4;fill-opacity:1"
       id="g270">
<path
   d="M 250,0 C 388.077,0 500,111.93 500,250 500,388.077 388.077,500 250,500 111.93,500 0,388.077 0,250 0,111.93 111.93,0 250,0 Z"
   id="path268"
   style="fill:#00aad4;fill-opacity:1" />
</g></g><g
     transform="matrix(0.16,0,0,0.16,1040,640)"
     id="g278"><g
       style="fill:#00aad4;fill-opacity:1"
       id="g276">
<path
   d="M 250,0 C 388.077,0 500,111.93 500,250 500,388.077 388.077,500 250,500 111.93,500 0,388.077 0,250 0,111.93 111.93,0 250,0 Z"
   id="path274"
   style="fill:#1d009c;fill-opacity:1" />
</g></g><g
     transform="matrix(0.16,0,0,0.16,1120,640)"
     id="g284"><g
       style="fill:#00aad4;fill-opacity:1"
       id="g282">
<path
   d="M 250,0 C 388.077,0 500,111.93 500,250 500,388.077 388.077,500 250,500 111.93,500 0,388.077 0,250 0,111.93 111.93,0 250,0 Z"
   id="path280"
   style="fill:#00aad4;fill-opacity:1" />
</g></g><g
     transform="matrix(0.16,0,0,0.16,1200,640)"
     id="g290"><g
       style="fill:#00aad4;fill-opacity:1"
       id="g288">
<path
   d="M 250,0 C 388.077,0 500,111.93 500,250 500,388.077 388.077,500 250,500 111.93,500 0,388.077 0,250 0,111.93 111.93,0 250,0 Z"
   id="path286"
   style="fill:#00aad4;fill-opacity:1" />
</g></g><g
     transform="matrix(0.16,0,0,0.16,1440,640)"
     id="g296"><g
       style="fill:#00aad4;fill-opacity:1"
       id="g294">
<path
   d="M 250,0 C 388.077,0 500,111.93 500,250 500,388.077 388.077,500 250,500 111.93,500 0,388.077 0,250 0,111.93 111.93,0 250,0 Z"
   id="path292"
   style="fill:#1d009c;fill-opacity:1" />
</g></g><g
     transform="matrix(0.16,0,0,0.16,1520,640)"
     id="g302"><g
       style="fill:#00aad4;fill-opacity:1"
       id="g300">
<path
   d="M 250,0 C 388.077,0 500,111.93 500,250 500,388.077 388.077,500 250,500 111.93,500 0,388.077 0,250 0,111.93 111.93,0 250,0 Z"
   id="path298"
   style="fill:#1d009c;fill-opacity:1" />
</g></g><g
     transform="matrix(0.16,0,0,0.16,1600,640)"
     id="g308"><g
       style="fill:#00aad4;fill-opacity:1"
       id="g306">
<path
   d="M 250,0 C 388.077,0 500,111.93 500,250 500,388.077 388.077,500 250,500 111.93,500 0,388.077 0,250 0,111.93 111.93,0 250,0 Z"
   id="path304"
   style="fill:#1d009c;fill-opacity:1" />
</g></g><g
     transform="matrix(0.16,0,0,0.16,1680,640)"
     id="g314"><g
       style="fill:#00aad4;fill-opacity:1"
       id="g312">
<path
   d="M 250,0 C 388.077,0 500,111.93 500,250 500,388.077 388.077,500 250,500 111.93,500 0,388.077 0,250 0,111.93 111.93,0 250,0 Z"
   id="path310"
   style="fill:#1d009c;fill-opacity:1" />
</g></g><g
     transform="matrix(0.16,0,0,0.16,1760,640)"
     id="g320"><g
       style="fill:#00aad4;fill-opacity:1"
       id="g318">
<path
   d="M 250,0 C 388.077,0 500,111.93 500,250 500,388.077 388.077,500 250,500 111.93,500 0,388.077 0,250 0,111.93 111.93,0 250,0 Z"
   id="path316"
   style="fill:#1d009c;fill-opacity:1" />
</g></g><g
     transform="matrix(0.16,0,0,0.16,80,720)"
     id="g326"><g
       style="fill:#00aad4;fill-opacity:1"
       id="g324">
<path
   d="M 250,0 C 388.077,0 500,111.93 500,250 500,388.077 388.077,500 250,500 111.93,500 0,388.077 0,250 0,111.93 111.93,0 250,0 Z"
   id="path322"
   style="fill:#00aad4;fill-opacity:1" />
</g></g><g
     transform="matrix(0.16,0,0,0.16,160,720)"
     id="g332"><g
       style="fill:#00aad4;fill-opacity:1"
       id="g330">
<path
   d="M 250,0 C 388.077,0 500,111.93 500,250 500,388.077 388.077,500 250,500 111.93,500 0,388.077 0,250 0,111.93 111.93,0 250,0 Z"
   id="path328"
   style="fill:#2d00f2;fill-opacity:1" />
</g></g><g
     transform="matrix(0.16,0,0,0.16,320,720)"
     id="g338"><g
       style="fill:#00aad4;fill-opacity:1"
       id="g336">
<path
   d="M 250,0 C 388.077,0 500,111.93 500,250 500,388.077 388.077,500 250,500 111.93,500 0,388.077 0,250 0,111.93 111.93,0 250,0 Z"
   id="path334"
   style="fill:#2d00f2;fill-opacity:1" />
</g></g><g
     transform="matrix(0.16,0,0,0.16,560,720)"
     id="g344"><g
       style="fill:#00aad4;fill-opacity:1"
       id="g342">
<path
   d="M 250,0 C 388.077,0 500,111.93 500,250 500,388.077 388.077,500 250,500 111.93,500 0,388.077 0,250 0,111.93 111.93,0 250,0 Z"
   id="path340"
   style="fill:#2d00f2;fill-opacity:1" />
</g></g><g
     transform="matrix(0.16,0,0,0.16,720,720)"
     id="g350"><g
       style="fill:#00aad4;fill-opacity:1"
       id="g348">
<path
   d="M 250,0 C 388.077,0 500,111.93 500,250 500,388.077 388.077,500 250,500 111.93,500 0,388.077 0,250 0,111.93 111.93,0 250,0 Z"
   id="path346"
   style="fill:#00aad4;fill-opacity:1" />
</g></g><g
     transform="matrix(0.16,0,0,0.16,880,720)"
     id="g356"><g
       style="fill:#00aad4;fill-opacity:1"
       id="g354">
<path
   d="M 250,0 C 388.077,0 500,111.93 500,250 500,388.077 388.077,500 250,500 111.93,500 0,388.077 0,250 0,111.93 111.93,0 250,0 Z"
   id="path352"
   style="fill:#2d00f2;fill-opacity:1" />
</g></g><g
     transform="matrix(0.16,0,0,0.16,1200,720)"
     id="g362"><g
       style="fill:#00aad4;fill-opacity:1"
       id="g360">
<path
   d="M 250,0 C 388.077,0 500,111.93 500,250 500,388.077 388.077,500 250,500 111.93,500 0,388.077 0,250 0,111.93 111.93,0 250,0 Z"
   id="path358"
   style="fill:#1d009c;fill-opacity:1" />
</g></g><g
     transform="matrix(0.16,0,0,0.16,1280,720)"
     id="g368"><g
       style="fill:#00aad4;fill-opacity:1"
       id="g366">
<path
   d="M 250,0 C 388.077,0 500,111.93 500,250 500,388.077 388.077,500 250,500 111.93,500 0,388.077 0,250 0,111.93 111.93,0 250,0 Z"
   id="path364"
   style="fill:#00aad4;fill-opacity:1" />
</g></g><g
     transform="matrix(0.16,0,0,0.16,1440,720)"
     id="g374"><g
       style="fill:#00aad4;fill-opacity:1"
       id="g372">
<path
   d="M 250,0 C 388.077,0 500,111.93 500,250 500,388.077 388.077,500 250,500 111.93,500 0,388.077 0,250 0,111.93 111.93,0 250,0 Z"
   id="path370"
   style="fill:#00aad4;fill-opacity:1" />
</g></g><g
     transform="matrix(0.16,0,0,0.16,1600,720)"
     id="g380"><g
       style="fill:#00aad4;fill-opacity:1"
       id="g378">
<path
   d="M 250,0 C 388.077,0 500,111.93 500,250 500,388.077 388.077,500 250,500 111.93,500 0,388.077 0,250 0,111.93 111.93,0 250,0 Z"
   id="path376"
   style="fill:#00aad4;fill-opacity:1" />
</g></g><g
     transform="matrix(0.16,0,0,0.16,1840,720)"
     id="g386"><g
       style="fill:#00aad4;fill-opacity:1"
       id="g384">
<path
   d="M 250,0 C 388.077,0 500,111.93 500,250 500,388.077 388.077,500 250,500 111.93,500 0,388.077 0,250 0,111.93 111.93,0 250,0 Z"
   id="path382"
   style="fill:#00aad4;fill-opacity:1" />
</g></g><g
     transform="matrix(0.16,0,0,0.16,0,800)"
     id="g392"><g
       style="fill:#00aad4;fill-opacity:1"
       id="g390">
<path
   d="M 250,0 C 388.077,0 500,111.93 500,250 500,388.077 388.077,500 250,500 111.93,500 0,388.077 0,250 0,111.93 111.93,0 250,0 Z"
   id="path388"
   style="fill:#2d00f2;fill-opacity:1" />
</g></g><g
     transform="matrix(0.16,0,0,0.16,160,800)"
     id="g398"><g
       style="fill:#00aad4;fill-opacity:1"
       id="g396">
<path
   d="M 250,0 C 388.077,0 500,111.93 500,250 500,388.077 388.077,500 250,500 111.93,500 0,388.077 0,250 0,111.93 111.93,0 250,0 Z"
   id="path394"
   style="fill:#00aad4;fill-opacity:1" />
</g></g><g
     transform="matrix(0.16,0,0,0.16,240,800)"
     id="g404"><g
       style="fill:#00aad4;fill-opacity:1"
       id="g402">
<path
   d="M 250,0 C 388.077,0 500,111.93 500,250 500,388.077 388.077,500 250,500 111.93,500 0,388.077 0,250 0,111.93 111.93,0 250,0 Z"
   id="path400"
   style="fill:#00aad4;fill-opacity:1" />
</g></g><g
     transform="matrix(0.16,0,0,0.16,400,800)"
     id="g410"><g
       style="fill:#00aad4;fill-opacity:1"
       id="g408">
<path
   d="M 250,0 C 388.077,0 500,111.93 500,250 500,388.077 388.077,500 250,500 111.93,500 0,388.077 0,250 0,111.93 111.93,0 250,0 Z"
   id="path406"
   style="fill:#00aad4;fill-opacity:1" />
</g></g><g
     transform="matrix(0.16,0,0,0.16,480,800)"
     id="g416"><g
       style="fill:#00aad4;fill-opacity:1"
       id="g414">
<path
   d="M 250,0 C 388.077,0 500,111.93 500,250 500,388.077 388.077,500 250,500 111.93,500 0,388.077 0,250 0,111.93 111.93,0 250,0 Z"
   id="path412"
   style="fill:#2d00f2;fill-opacity:1" />
</g></g><g
     transform="matrix(0.16,0,0,0.16,560,800)"
     id="g422"><g
       style="fill:#00aad4;fill-opacity:1"
       id="g420">
<path
   d="M 250,0 C 388.077,0 500,111.93 500,250 500,388.077 388.077,500 250,500 111.93,500 0,388.077 0,250 0,111.93 111.93,0 250,0 Z"
   id="path418"
   style="fill:#00aad4;fill-opacity:1" />
</g></g><g
     transform="matrix(0.16,0,0,0.16,720,800)"
     id="g428"><g
       style="fill:#00aad4;fill-opacity:1"
       id="g426">
<path
   d="M 250,0 C 388.077,0 500,111.93 500,250 500,388.077 388.077,500 250,500 111.93,500 0,388.077 0,250 0,111.93 111.93,0 250,0 Z"
   id="path424"
   style="fill:#2d00f2;fill-opacity:1" />
</g></g><g
     transform="matrix(0.16,0,0,0.16,800,800)"
     id="g434"><g
       style="fill:#00aad4;fill-opacity:1"
       id="g432">
<path
   d="M 250,0 C 388.077,0 500,111.93 500,250 500,388.077 388.077,500 250,500 111.93,500 0,388.077 0,250 0,111.93 111.93,0 250,0 Z"
   id="path430"
   style="fill:#00aad4;fill-opacity:1" />
</g></g><g
     transform="matrix(0.16,0,0,0.16,960,800)"
     id="g440"><g
       style="fill:#00aad4;fill-opacity:1"
       id="g438">
<path
   d="M 250,0 C 388.077,0 500,111.93 500,250 500,388.077 388.077,500 250,500 111.93,500 0,388.077 0,250 0,111.93 111.93,0 250,0 Z"
   id="path436"
   style="fill:#2d00f2;fill-opacity:1" />
</g></g><g
     transform="matrix(0.16,0,0,0.16,1520,800)"
     id="g446"><g
       style="fill:#00aad4;fill-opacity:1"
       id="g444">
<path
   d="M 250,0 C 388.077,0 500,111.93 500,250 500,388.077 388.077,500 250,500 111.93,500 0,388.077 0,250 0,111.93 111.93,0 250,0 Z"
   id="path442"
   style="fill:#00aad4;fill-opacity:1" />
</g></g><g
     transform="matrix(0.16,0,0,0.16,1680,800)"
     id="g452"><g
       style="fill:#00aad4;fill-opacity:1"
       id="g450">
<path
   d="M 250,0 C 388.077,0 500,111.93 500,250 500,388.077 388.077,500 250,500 111.93,500 0,388.077 0,250 0,111.93 111.93,0 250,0 Z"
   id="path448"
   style="fill:#1d009c;fill-opacity:1" />
</g></g><g
     transform="matrix(0.16,0,0,0.16,1840,800)"
     id="g458"><g
       style="fill:#00aad4;fill-opacity:1"
       id="g456">
<path
   d="M 250,0 C 388.077,0 500,111.93 500,250 500,388.077 388.077,500 250,500 111.93,500 0,388.077 0,250 0,111.93 111.93,0 250,0 Z"
   id="path454"
   style="fill:#00aad4;fill-opacity:1" />
</g></g><g
     transform="matrix(0.16,0,0,0.16,1920,800)"
     id="g464"><g
       style="fill:#00aad4;fill-opacity:1"
       id="g462">
<path
   d="M 250,0 C 388.077,0 500,111.93 500,250 500,388.077 388.077,500 250,500 111.93,500 0,388.077 0,250 0,111.93 111.93,0 250,0 Z"
   id="path460"
   style="fill:#1d009c;fill-opacity:1" />
</g></g><g
     transform="matrix(0.16,0,0,0.16,0,880)"
     id="g470"><g
       style="fill:#00aad4;fill-opacity:1"
       id="g468">
<path
   d="M 250,0 C 388.077,0 500,111.93 500,250 500,388.077 388.077,500 250,500 111.93,500 0,388.077 0,250 0,111.93 111.93,0 250,0 Z"
   id="path466"
   style="fill:#2d00f2;fill-opacity:1" />
</g></g><g
     transform="matrix(0.16,0,0,0.16,80,880)"
     id="g476"><g
       style="fill:#00aad4;fill-opacity:1"
       id="g474">
<path
   d="M 250,0 C 388.077,0 500,111.93 500,250 500,388.077 388.077,500 250,500 111.93,500 0,388.077 0,250 0,111.93 111.93,0 250,0 Z"
   id="path472"
   style="fill:#2d00f2;fill-opacity:1" />
</g></g><g
     transform="matrix(0.16,0,0,0.16,320,880)"
     id="g482"><g
       style="fill:#00aad4;fill-opacity:1"
       id="g480">
<path
   d="M 250,0 C 388.077,0 500,111.93 500,250 500,388.077 388.077,500 250,500 111.93,500 0,388.077 0,250 0,111.93 111.93,0 250,0 Z"
   id="path478"
   style="fill:#00aad4;fill-opacity:1" />
</g></g><g
     transform="matrix(0.16,0,0,0.16,400,880)"
     id="g488"><g
       style="fill:#00aad4;fill-opacity:1"
       id="g486">
<path
   d="M 250,0 C 388.077,0 500,111.93 500,250 500,388.077 388.077,500 250,500 111.93,500 0,388.077 0,250 0,111.93 111.93,0 250,0 Z"
   id="path484"
   style="fill:#2d00f2;fill-opacity:1" />
</g></g><g
     transform="matrix(0.16,0,0,0.16,640,880)"
     id="g494"><g
       style="fill:#00aad4;fill-opacity:1"
       id="g492">
<path
   d="M 250,0 C 388.077,0 500,111.93 500,250 500,388.077 388.077,500 250,500 111.93,500 0,388.077 0,250 0,111.93 111.93,0 250,0 Z"
   id="path490"
   style="fill:#00aad4;fill-opacity:1" />
</g></g><g
     transform="matrix(0.16,0,0,0.16,1120,880)"
     id="g500"><g
       style="fill:#00aad4;fill-opacity:1"
       id="g498">
<path
   d="M 250,0 C 388.077,0 500,111.93 500,250 500,388.077 388.077,500 250,500 111.93,500 0,388.077 0,250 0,111.93 111.93,0 250,0 Z"
   id="path496"
   style="fill:#1d009c;fill-opacity:1" />
</g></g><g
     transform="matrix(0.16,0,0,0.16,1280,880)"
     id="g506"><g
       style="fill:#00aad4;fill-opacity:1"
       id="g504">
<path
   d="M 250,0 C 388.077,0 500,111.93 500,250 500,388.077 388.077,500 250,500 111.93,500 0,388.077 0,250 0,111.93 111.93,0 250,0 Z"
   id="path502"
   style="fill:#00aad4;fill-opacity:1" />
</g></g><g
     transform="matrix(0.16,0,0,0.16,1440,880)"
     id="g512"><g
       style="fill:#00aad4;fill-opacity:1"
       id="g510">
<path
   d="M 250,0 C 388.077,0 500,111.93 500,250 500,388.077 388.077,500 250,500 111.93,500 0,388.077 0,250 0,111.93 111.93,0 250,0 Z"
   id="path508"
   style="fill:#1d009c;fill-opacity:1" />
</g></g><g
     transform="matrix(0.16,0,0,0.16,1520,880)"
     id="g518"><g
       style="fill:#00aad4;fill-opacity:1"
       id="g516">
<path
   d="M 250,0 C 388.077,0 500,111.93 500,250 500,388.077 388.077,500 250,500 111.93,500 0,388.077 0,250 0,111.93 111.93,0 250,0 Z"
   id="path514"
   style="fill:#00aad4;fill-opacity:1" />
</g></g><g
     transform="matrix(0.16,0,0,0.16,1840,880)"
     id="g524"><g
       style="fill:#00aad4;fill-opacity:1"
       id="g522">
<path
   d="M 250,0 C 388.077,0 500,111.93 500,250 500,388.077 388.077,500 250,500 111.93,500 0,388.077 0,250 0,111.93 111.93,0 250,0 Z"
   id="path520"
   style="fill:#1d009c;fill-opacity:1" />
</g></g><g
     transform="matrix(0.16,0,0,0.16,1920,880)"
     id="g530"><g
       style="fill:#00aad4;fill-opacity:1"
       id="g528">
<path
   d="M 250,0 C 388.077,0 500,111.93 500,250 500,388.077 388.077,500 250,500 111.93,500 0,388.077 0,250 0,111.93 111.93,0 250,0 Z"
   id="path526"
   style="fill:#00aad4;fill-opacity:1" />
</g></g><g
     transform="matrix(0.16,0,0,0.16,160,960)"
     id="g536"><g
       style="fill:#00aad4;fill-opacity:1"
       id="g534">
<path
   d="M 250,0 C 388.077,0 500,111.93 500,250 500,388.077 388.077,500 250,500 111.93,500 0,388.077 0,250 0,111.93 111.93,0 250,0 Z"
   id="path532"
   style="fill:#00aad4;fill-opacity:1" />
</g></g><g
     transform="matrix(0.16,0,0,0.16,320,960)"
     id="g542"><g
       style="fill:#00aad4;fill-opacity:1"
       id="g540">
<path
   d="M 250,0 C 388.077,0 500,111.93 500,250 500,388.077 388.077,500 250,500 111.93,500 0,388.077 0,250 0,111.93 111.93,0 250,0 Z"
   id="path538"
   style="fill:#00aad4;fill-opacity:1" />
</g></g><g
     transform="matrix(0.16,0,0,0.16,480,960)"
     id="g548"><g
       style="fill:#00aad4;fill-opacity:1"
       id="g546">
<path
   d="M 250,0 C 388.077,0 500,111.93 500,250 500,388.077 388.077,500 250,500 111.93,500 0,388.077 0,250 0,111.93 111.93,0 250,0 Z"
   id="path544"
   style="fill:#2d00f2;fill-opacity:1" />
</g></g><g
     transform="matrix(0.16,0,0,0.16,640,960)"
     id="g554"><g
       style="fill:#00aad4;fill-opacity:1"
       id="g552">
<path
   d="M 250,0 C 388.077,0 500,111.93 500,250 500,388.077 388.077,500 250,500 111.93,500 0,388.077 0,250 0,111.93 111.93,0 250,0 Z"
   id="path550"
   style="fill:#2d00f2;fill-opacity:1" />
</g></g><g
     transform="matrix(0.16,0,0,0.16,720,960)"
     id="g560"><g
       style="fill:#00aad4;fill-opacity:1"
       id="g558">
<path
   d="M 250,0 C 388.077,0 500,111.93 500,250 500,388.077 388.077,500 250,500 111.93,500 0,388.077 0,250 0,111.93 111.93,0 250,0 Z"
   id="path556"
   style="fill:#00aad4;fill-opacity:1" />
</g></g><g
     transform="matrix(0.16,0,0,0.16,880,960)"
     id="g566"><g
       style="fill:#00aad4;fill-opacity:1"
       id="g564">
<path
   d="M 250,0 C 388.077,0 500,111.93 500,250 500,388.077 388.077,500 250,500 111.93,500 0,388.077 0,250 0,111.93 111.93,0 250,0 Z"
   id="path562"
   style="fill:#2d00f2;fill-opacity:1" />
</g></g><g
     transform="matrix(0.16,0,0,0.16,960,960)"
     id="g572"><g
       style="fill:#00aad4;fill-opacity:1"
       id="g570">
<path
   d="M 250,0 C 388.077,0 500,111.93 500,250 500,388.077 388.077,500 250,500 111.93,500 0,388.077 0,250 0,111.93 111.93,0 250,0 Z"
   id="path568"
   style="fill:#00aad4;fill-opacity:1" />
</g></g><g
     transform="matrix(0.16,0,0,0.16,1040,960)"
     id="g578"><g
       style="fill:#00aad4;fill-opacity:1"
       id="g576">
<path
   d="M 250,0 C 388.077,0 500,111.93 500,250 500,388.077 388.077,500 250,500 111.93,500 0,388.077 0,250 0,111.93 111.93,0 250,0 Z"
   id="path574"
   style="fill:#00aad4;fill-opacity:1" />
</g></g><g
     transform="matrix(0.16,0,0,0.16,1120,960)"
     id="g584"><g
       style="fill:#00aad4;fill-opacity:1"
       id="g582">
<path
   d="M 250,0 C 388.077,0 500,111.93 500,250 500,388.077 388.077,500 250,500 111.93,500 0,388.077 0,250 0,111.93 111.93,0 250,0 Z"
   id="path580"
   style="fill:#00aad4;fill-opacity:1" />
</g></g><g
     transform="matrix(0.16,0,0,0.16,1200,960)"
     id="g590"><g
       style="fill:#00aad4;fill-opacity:1"
       id="g588">
<path
   d="M 250,0 C 388.077,0 500,111.93 500,250 500,388.077 388.077,500 250,500 111.93,500 0,388.077 0,250 0,111.93 111.93,0 250,0 Z"
   id="path586"
   style="fill:#1d009c;fill-opacity:1" />
</g></g><g
     transform="matrix(0.16,0,0,0.16,1280,960)"
     id="g596"><g
       style="fill:#00aad4;fill-opacity:1"
       id="g594">
<path
   d="M 250,0 C 388.077,0 500,111.93 500,250 500,388.077 388.077,500 250,500 111.93,500 0,388.077 0,250 0,111.93 111.93,0 250,0 Z"
   id="path592"
   style="fill:#1d009c;fill-opacity:1" />
</g></g><g
     transform="matrix(0.16,0,0,0.16,1360,960)"
     id="g602"><g
       style="fill:#00aad4;fill-opacity:1"
       id="g600">
<path
   d="M 250,0 C 388.077,0 500,111.93 500,250 500,388.077 388.077,500 250,500 111.93,500 0,388.077 0,250 0,111.93 111.93,0 250,0 Z"
   id="path598"
   style="fill:#1d009c;fill-opacity:1" />
</g></g><g
     transform="matrix(0.16,0,0,0.16,1760,960)"
     id="g608"><g
       style="fill:#00aad4;fill-opacity:1"
       id="g606">
<path
   d="M 250,0 C 388.077,0 500,111.93 500,250 500,388.077 388.077,500 250,500 111.93,500 0,388.077 0,250 0,111.93 111.93,0 250,0 Z"
   id="path604"
   style="fill:#1d009c;fill-opacity:1" />
</g></g><g
     transform="matrix(0.16,0,0,0.16,1840,960)"
     id="g614"><g
       style="fill:#00aad4;fill-opacity:1"
       id="g612">
<path
   d="M 250,0 C 388.077,0 500,111.93 500,250 500,388.077 388.077,500 250,500 111.93,500 0,388.077 0,250 0,111.93 111.93,0 250,0 Z"
   id="path610"
   style="fill:#00aad4;fill-opacity:1" />
</g></g><g
     transform="matrix(0.16,0,0,0.16,1920,960)"
     id="g620"><g
       style="fill:#00aad4;fill-opacity:1"
       id="g618">
<path
   d="M 250,0 C 388.077,0 500,111.93 500,250 500,388.077 388.077,500 250,500 111.93,500 0,388.077 0,250 0,111.93 111.93,0 250,0 Z"
   id="path616"
   style="fill:#00aad4;fill-opacity:1" />
</g></g><g
     transform="matrix(0.16,0,0,0.16,0,1040)"
     id="g626"><g
       style="fill:#00aad4;fill-opacity:1"
       id="g624">
<path
   d="M 250,0 C 388.077,0 500,111.93 500,250 500,388.077 388.077,500 250,500 111.93,500 0,388.077 0,250 0,111.93 111.93,0 250,0 Z"
   id="path622"
   style="fill:#2d00f2;fill-opacity:1" />
</g></g><g
     transform="matrix(0.16,0,0,0.16,80,1040)"
     id="g632"><g
       style="fill:#00aad4;fill-opacity:1"
       id="g630">
<path
   d="M 250,0 C 388.077,0 500,111.93 500,250 500,388.077 388.077,500 250,500 111.93,500 0,388.077 0,250 0,111.93 111.93,0 250,0 Z"
   id="path628"
   style="fill:#2d00f2;fill-opacity:1" />
</g></g><g
     transform="matrix(0.16,0,0,0.16,160,1040)"
     id="g638"><g
       style="fill:#00aad4;fill-opacity:1"
       id="g636">
<path
   d="M 250,0 C 388.077,0 500,111.93 500,250 500,388.077 388.077,500 250,500 111.93,500 0,388.077 0,250 0,111.93 111.93,0 250,0 Z"
   id="path634"
   style="fill:#00aad4;fill-opacity:1" />
</g></g><g
     transform="matrix(0.16,0,0,0.16,240,1040)"
     id="g644"><g
       style="fill:#00aad4;fill-opacity:1"
       id="g642">
<path
   d="M 250,0 C 388.077,0 500,111.93 500,250 500,388.077 388.077,500 250,500 111.93,500 0,388.077 0,250 0,111.93 111.93,0 250,0 Z"
   id="path640"
   style="fill:#2d00f2;fill-opacity:1" />
</g></g><g
     transform="matrix(0.16,0,0,0.16,400,1040)"
     id="g650"><g
       style="fill:#00aad4;fill-opacity:1"
       id="g648">
<path
   d="M 250,0 C 388.077,0 500,111.93 500,250 500,388.077 388.077,500 250,500 111.93,500 0,388.077 0,250 0,111.93 111.93,0 250,0 Z"
   id="path646"
   style="fill:#00aad4;fill-opacity:1" />
</g></g><g
     transform="matrix(0.16,0,0,0.16,560,1040)"
     id="g656"><g
       style="fill:#00aad4;fill-opacity:1"
       id="g654">
<path
   d="M 250,0 C 388.077,0 500,111.93 500,250 500,388.077 388.077,500 250,500 111.93,500 0,388.077 0,250 0,111.93 111.93,0 250,0 Z"
   id="path652"
   style="fill:#00aad4;fill-opacity:1" />
</g></g><g
     transform="matrix(0.16,0,0,0.16,640,1040)"
     id="g662"><g
       style="fill:#00aad4;fill-opacity:1"
       id="g660">
<path
   d="M 250,0 C 388.077,0 500,111.93 500,250 500,388.077 388.077,500 250,500 111.93,500 0,388.077 0,250 0,111.93 111.93,0 250,0 Z"
   id="path658"
   style="fill:#00aad4;fill-opacity:1" />
</g></g><g
     transform="matrix(0.16,0,0,0.16,960,1040)"
     id="g668"><g
       style="fill:#00aad4;fill-opacity:1"
       id="g666">
<path
   d="M 250,0 C 388.077,0 500,111.93 500,250 500,388.077 388.077,500 250,500 111.93,500 0,388.077 0,250 0,111.93 111.93,0 250,0 Z"
   id="path664"
   style="fill:#2d00f2;fill-opacity:1" />
</g></g><g
     transform="matrix(0.16,0,0,0.16,1040,1040)"
     id="g674"><g
       style="fill:#00aad4;fill-opacity:1"
       id="g672">
<path
   d="M 250,0 C 388.077,0 500,111.93 500,250 500,388.077 388.077,500 250,500 111.93,500 0,388.077 0,250 0,111.93 111.93,0 250,0 Z"
   id="path670"
   style="fill:#00aad4;fill-opacity:1" />
</g></g><g
     transform="matrix(0.16,0,0,0.16,1280,1040)"
     id="g680"><g
       style="fill:#00aad4;fill-opacity:1"
       id="g678">
<path
   d="M 250,0 C 388.077,0 500,111.93 500,250 500,388.077 388.077,500 250,500 111.93,500 0,388.077 0,250 0,111.93 111.93,0 250,0 Z"
   id="path676"
   style="fill:#00aad4;fill-opacity:1" />
</g></g><g
     transform="matrix(0.16,0,0,0.16,1440,1040)"
     id="g686"><g
       style="fill:#00aad4;fill-opacity:1"
       id="g684">
<path
   d="M 250,0 C 388.077,0 500,111.93 500,250 500,388.077 388.077,500 250,500 111.93,500 0,388.077 0,250 0,111.93 111.93,0 250,0 Z"
   id="path682"
   style="fill:#00aad4;fill-opacity:1" />
</g></g><g
     transform="matrix(0.16,0,0,0.16,1520,1040)"
     id="g692"><g
       style="fill:#00aad4;fill-opacity:1"
       id="g690">
<path
   d="M 250,0 C 388.077,0 500,111.93 500,250 500,388.077 388.077,500 250,500 111.93,500 0,388.077 0,250 0,111.93 111.93,0 250,0 Z"
   id="path688"
   style="fill:#1d009c;fill-opacity:1" />
</g></g><g
     transform="matrix(0.16,0,0,0.16,1600,1040)"
     id="g698"><g
       style="fill:#00aad4;fill-opacity:1"
       id="g696">
<path
   d="M 250,0 C 388.077,0 500,111.93 500,250 500,388.077 388.077,500 250,500 111.93,500 0,388.077 0,250 0,111.93 111.93,0 250,0 Z"
   id="path694"
   style="fill:#00aad4;fill-opacity:1" />
</g></g><g
     transform="matrix(0.16,0,0,0.16,1680,1040)"
     id="g704"><g
       style="fill:#00aad4;fill-opacity:1"
       id="g702">
<path
   d="M 250,0 C 388.077,0 500,111.93 500,250 500,388.077 388.077,500 250,500 111.93,500 0,388.077 0,250 0,111.93 111.93,0 250,0 Z"
   id="path700"
   style="fill:#00aad4;fill-opacity:1" />
</g></g><g
     transform="matrix(0.16,0,0,0.16,0,1120)"
     id="g710"><g
       style="fill:#00aad4;fill-opacity:1"
       id="g708">
<path
   d="M 250,0 C 388.077,0 500,111.93 500,250 500,388.077 388.077,500 250,500 111.93,500 0,388.077 0,250 0,111.93 111.93,0 250,0 Z"
   id="path706"
   style="fill:#2d00f2;fill-opacity:1" />
</g></g><g
     transform="matrix(0.16,0,0,0.16,400,1120)"
     id="g716"><g
       style="fill:#00aad4;fill-opacity:1"
       id="g714">
<path
   d="M 250,0 C 388.077,0 500,111.93 500,250 500,388.077 388.077,500 250,500 111.93,500 0,388.077 0,250 0,111.93 111.93,0 250,0 Z"
   id="path712"
   style="fill:#2d00f2;fill-opacity:1" />
</g></g><g
     transform="matrix(0.16,0,0,0.16,480,1120)"
     id="g722"><g
       style="fill:#00aad4;fill-opacity:1"
       id="g720">
<path
   d="M 250,0 C 388.077,0 500,111.93 500,250 500,388.077 388.077,500 250,500 111.93,500 0,388.077 0,250 0,111.93 111.93,0 250,0 Z"
   id="path718"
   style="fill:#00aad4;fill-opacity:1" />
</g></g><g
     transform="matrix(0.16,0,0,0.16,560,1120)"
     id="g728"><g
       style="fill:#00aad4;fill-opacity:1"
       id="g726">
<path
   d="M 250,0 C 388.077,0 500,111.93 500,250 500,388.077 388.077,500 250,500 111.93,500 0,388.077 0,250 0,111.93 111.93,0 250,0 Z"
   id="path724"
   style="fill:#2d00f2;fill-opacity:1" />
</g></g><g
     transform="matrix(0.16,0,0,0.16,1040,1120)"
     id="g734"><g
       style="fill:#00aad4;fill-opacity:1"
       id="g732">
<path
   d="M 250,0 C 388.077,0 500,111.93 500,250 500,388.077 388.077,500 250,500 111.93,500 0,388.077 0,250 0,111.93 111.93,0 250,0 Z"
   id="path730"
   style="fill:#2d00f2;fill-opacity:1" />
</g></g><g
     transform="matrix(0.16,0,0,0.16,1120,1120)"
     id="g740"><g
       style="fill:#00aad4;fill-opacity:1"
       id="g738">
<path
   d="M 250,0 C 388.077,0 500,111.93 500,250 500,388.077 388.077,500 250,500 111.93,500 0,388.077 0,250 0,111.93 111.93,0 250,0 Z"
   id="path736"
   style="fill:#00aad4;fill-opacity:1" />
</g></g><g
     transform="matrix(0.16,0,0,0.16,1200,1120)"
     id="g746"><g
       style="fill:#00aad4;fill-opacity:1"
       id="g744">
<path
   d="M 250,0 C 388.077,0 500,111.93 500,250 500,388.077 388.077,500 250,500 111.93,500 0,388.077 0,250 0,111.93 111.93,0 250,0 Z"
   id="path742"
   style="fill:#3a0dfe;fill-opacity:1" />
</g></g><g
     transform="matrix(0.16,0,0,0.16,1280,1120)"
     id="g752"><g
       style="fill:#00aad4;fill-opacity:1"
       id="g750">
<path
   d="M 250,0 C 388.077,0 500,111.93 500,250 500,388.077 388.077,500 250,500 111.93,500 0,388.077 0,250 0,111.93 111.93,0 250,0 Z"
   id="path748"
   style="fill:#3a0dfe;fill-opacity:1" />
</g></g><g
     transform="matrix(0.16,0,0,0.16,1440,1120)"
     id="g758"><g
       style="fill:#00aad4;fill-opacity:1"
       id="g756">
<path
   d="M 250,0 C 388.077,0 500,111.93 500,250 500,388.077 388.077,500 250,500 111.93,500 0,388.077 0,250 0,111.93 111.93,0 250,0 Z"
   id="path754"
   style="fill:#00aad4;fill-opacity:1" />
</g></g><g
     transform="matrix(0.16,0,0,0.16,1520,1120)"
     id="g764"><g
       style="fill:#00aad4;fill-opacity:1"
       id="g762">
<path
   d="M 250,0 C 388.077,0 500,111.93 500,250 500,388.077 388.077,500 250,500 111.93,500 0,388.077 0,250 0,111.93 111.93,0 250,0 Z"
   id="path760"
   style="fill:#1d009c;fill-opacity:1" />
</g></g><g
     transform="matrix(0.16,0,0,0.16,1680,1120)"
     id="g770"><g
       style="fill:#00aad4;fill-opacity:1"
       id="g768">
<path
   d="M 250,0 C 388.077,0 500,111.93 500,250 500,388.077 388.077,500 250,500 111.93,500 0,388.077 0,250 0,111.93 111.93,0 250,0 Z"
   id="path766"
   style="fill:#00aad4;fill-opacity:1" />
</g></g><g
     transform="matrix(0.16,0,0,0.16,1760,1120)"
     id="g776"><g
       style="fill:#00aad4;fill-opacity:1"
       id="g774">
<path
   d="M 250,0 C 388.077,0 500,111.93 500,250 500,388.077 388.077,500 250,500 111.93,500 0,388.077 0,250 0,111.93 111.93,0 250,0 Z"
   id="path772"
   style="fill:#1d009c;fill-opacity:1" />
</g></g><g
     transform="matrix(0.16,0,0,0.16,1840,1120)"
     id="g782"><g
       style="fill:#00aad4;fill-opacity:1"
       id="g780">
<path
   d="M 250,0 C 388.077,0 500,111.93 500,250 500,388.077 388.077,500 250,500 111.93,500 0,388.077 0,250 0,111.93 111.93,0 250,0 Z"
   id="path778"
   style="fill:#1d009c;fill-opacity:1" />
</g></g><g
     transform="matrix(0.16,0,0,0.16,1920,1120)"
     id="g788"><g
       style="fill:#00aad4;fill-opacity:1"
       id="g786">
<path
   d="M 250,0 C 388.077,0 500,111.93 500,250 500,388.077 388.077,500 250,500 111.93,500 0,388.077 0,250 0,111.93 111.93,0 250,0 Z"
   id="path784"
   style="fill:#00aad4;fill-opacity:1" />
</g></g><g
     transform="matrix(0.16,0,0,0.16,0,1200)"
     id="g794"><g
       style="fill:#00aad4;fill-opacity:1"
       id="g792">
<path
   d="M 250,0 C 388.077,0 500,111.93 500,250 500,388.077 388.077,500 250,500 111.93,500 0,388.077 0,250 0,111.93 111.93,0 250,0 Z"
   id="path790"
   style="fill:#00aad4;fill-opacity:1" />
</g></g><g
     transform="matrix(0.16,0,0,0.16,320,1200)"
     id="g800"><g
       style="fill:#00aad4;fill-opacity:1"
       id="g798">
<path
   d="M 250,0 C 388.077,0 500,111.93 500,250 500,388.077 388.077,500 250,500 111.93,500 0,388.077 0,250 0,111.93 111.93,0 250,0 Z"
   id="path796"
   style="fill:#00aad4;fill-opacity:1" />
</g></g><g
     transform="matrix(0.16,0,0,0.16,400,1200)"
     id="g806"><g
       style="fill:#00aad4;fill-opacity:1"
       id="g804">
<path
   d="M 250,0 C 388.077,0 500,111.93 500,250 500,388.077 388.077,500 250,500 111.93,500 0,388.077 0,250 0,111.93 111.93,0 250,0 Z"
   id="path802"
   style="fill:#00aad4;fill-opacity:1" />
</g></g><g
     transform="matrix(0.16,0,0,0.16,720,1200)"
     id="g812"><g
       style="fill:#00aad4;fill-opacity:1"
       id="g810">
<path
   d="M 250,0 C 388.077,0 500,111.93 500,250 500,388.077 388.077,500 250,500 111.93,500 0,388.077 0,250 0,111.93 111.93,0 250,0 Z"
   id="path808"
   style="fill:#2d00f2;fill-opacity:1" />
</g></g><g
     transform="matrix(0.16,0,0,0.16,960,1200)"
     id="g818"><g
       style="fill:#00aad4;fill-opacity:1"
       id="g816">
<path
   d="M 250,0 C 388.077,0 500,111.93 500,250 500,388.077 388.077,500 250,500 111.93,500 0,388.077 0,250 0,111.93 111.93,0 250,0 Z"
   id="path814"
   style="fill:#00aad4;fill-opacity:1" />
</g></g><g
     transform="matrix(0.16,0,0,0.16,1280,1200)"
     id="g824"><g
       style="fill:#00aad4;fill-opacity:1"
       id="g822">
<path
   d="M 250,0 C 388.077,0 500,111.93 500,250 500,388.077 388.077,500 250,500 111.93,500 0,388.077 0,250 0,111.93 111.93,0 250,0 Z"
   id="path820"
   style="fill:#00aad4;fill-opacity:1" />
</g></g><g
     transform="matrix(0.16,0,0,0.16,1360,1200)"
     id="g830"><g
       style="fill:#00aad4;fill-opacity:1"
       id="g828">
<path
   d="M 250,0 C 388.077,0 500,111.93 500,250 500,388.077 388.077,500 250,500 111.93,500 0,388.077 0,250 0,111.93 111.93,0 250,0 Z"
   id="path826"
   style="fill:#00aad4;fill-opacity:1" />
</g></g><g
     transform="matrix(0.16,0,0,0.16,1920,1200)"
     id="g836"><g
       style="fill:#00aad4;fill-opacity:1"
       id="g834">
<path
   d="M 250,0 C 388.077,0 500,111.93 500,250 500,388.077 388.077,500 250,500 111.93,500 0,388.077 0,250 0,111.93 111.93,0 250,0 Z"
   id="path832"
   style="fill:#00aad4;fill-opacity:1" />
</g></g><g
     transform="matrix(0.16,0,0,0.16,0,1280)"
     id="g842"><g
       style="fill:#00aad4;fill-opacity:1"
       id="g840">
<path
   d="M 250,0 C 388.077,0 500,111.93 500,250 500,388.077 388.077,500 250,500 111.93,500 0,388.077 0,250 0,111.93 111.93,0 250,0 Z"
   id="path838"
   style="fill:#2d00f2;fill-opacity:1" />
</g></g><g
     transform="matrix(0.16,0,0,0.16,160,1280)"
     id="g848"><g
       style="fill:#00aad4;fill-opacity:1"
       id="g846">
<path
   d="M 250,0 C 388.077,0 500,111.93 500,250 500,388.077 388.077,500 250,500 111.93,500 0,388.077 0,250 0,111.93 111.93,0 250,0 Z"
   id="path844"
   style="fill:#2d00f2;fill-opacity:1" />
</g></g><g
     transform="matrix(0.16,0,0,0.16,480,1280)"
     id="g854"><g
       style="fill:#00aad4;fill-opacity:1"
       id="g852">
<path
   d="M 250,0 C 388.077,0 500,111.93 500,250 500,388.077 388.077,500 250,500 111.93,500 0,388.077 0,250 0,111.93 111.93,0 250,0 Z"
   id="path850"
   style="fill:#2d00f2;fill-opacity:1" />
</g></g><g
     transform="matrix(0.16,0,0,0.16,640,1280)"
     id="g860"><g
       style="fill:#00aad4;fill-opacity:1"
       id="g858">
<path
   d="M 250,0 C 388.077,0 500,111.93 500,250 500,388.077 388.077,500 250,500 111.93,500 0,388.077 0,250 0,111.93 111.93,0 250,0 Z"
   id="path856"
   style="fill:#00aad4;fill-opacity:1" />
</g></g><g
     transform="matrix(0.16,0,0,0.16,1040,1280)"
     id="g866"><g
       style="fill:#00aad4;fill-opacity:1"
       id="g864">
<path
   d="M 250,0 C 388.077,0 500,111.93 500,250 500,388.077 388.077,500 250,500 111.93,500 0,388.077 0,250 0,111.93 111.93,0 250,0 Z"
   id="path862"
   style="fill:#2d00f2;fill-opacity:1" />
</g></g><g
     transform="matrix(0.16,0,0,0.16,1120,1280)"
     id="g872"><g
       style="fill:#00aad4;fill-opacity:1"
       id="g870">
<path
   d="M 250,0 C 388.077,0 500,111.93 500,250 500,388.077 388.077,500 250,500 111.93,500 0,388.077 0,250 0,111.93 111.93,0 250,0 Z"
   id="path868"
   style="fill:#2d00f2;fill-opacity:1" />
</g></g><g
     transform="matrix(0.16,0,0,0.16,1280,1280)"
     id="g878"><g
       style="fill:#00aad4;fill-opacity:1"
       id="g876">
<path
   d="M 250,0 C 388.077,0 500,111.93 500,250 500,388.077 388.077,500 250,500 111.93,500 0,388.077 0,250 0,111.93 111.93,0 250,0 Z"
   id="path874"
   style="fill:#3a0dfe;fill-opacity:1" />
</g></g><g
     transform="matrix(0.16,0,0,0.16,1360,1280)"
     id="g884"><g
       style="fill:#00aad4;fill-opacity:1"
       id="g882">
<path
   d="M 250,0 C 388.077,0 500,111.93 500,250 500,388.077 388.077,500 250,500 111.93,500 0,388.077 0,250 0,111.93 111.93,0 250,0 Z"
   id="path880"
   style="fill:#00aad4;fill-opacity:1" />
</g></g><g
     transform="matrix(0.16,0,0,0.16,1440,1280)"
     id="g890"><g
       style="fill:#00aad4;fill-opacity:1"
       id="g888">
<path
   d="M 250,0 C 388.077,0 500,111.93 500,250 500,388.077 388.077,500 250,500 111.93,500 0,388.077 0,250 0,111.93 111.93,0 250,0 Z"
   id="path886"
   style="fill:#3a0dfe;fill-opacity:1" />
</g></g><g
     transform="matrix(0.16,0,0,0.16,1520,1280)"
     id="g896"><g
       style="fill:#00aad4;fill-opacity:1"
       id="g894">
<path
   d="M 250,0 C 388.077,0 500,111.93 500,250 500,388.077 388.077,500 250,500 111.93,500 0,388.077 0,250 0,111.93 111.93,0 250,0 Z"
   id="path892"
   style="fill:#00aad4;fill-opacity:1" />
</g></g><g
     transform="matrix(0.16,0,0,0.16,1600,1280)"
     id="g902"><g
       style="fill:#00aad4;fill-opacity:1"
       id="g900">
<path
   d="M 250,0 C 388.077,0 500,111.93 500,250 500,388.077 388.077,500 250,500 111.93,500 0,388.077 0,250 0,111.93 111.93,0 250,0 Z"
   id="path898"
   style="fill:#00aad4;fill-opacity:1" />
</g></g><g
     transform="matrix(0.16,0,0,0.16,1680,1280)"
     id="g908"><g
       style="fill:#00aad4;fill-opacity:1"
       id="g906">
<path
   d="M 250,0 C 388.077,0 500,111.93 500,250 500,388.077 388.077,500 250,500 111.93,500 0,388.077 0,250 0,111.93 111.93,0 250,0 Z"
   id="path904"
   style="fill:#3a0dfe;fill-opacity:1" />
</g></g><g
     transform="matrix(0.16,0,0,0.16,1760,1280)"
     id="g914"><g
       style="fill:#00aad4;fill-opacity:1"
       id="g912">
<path
   d="M 250,0 C 388.077,0 500,111.93 500,250 500,388.077 388.077,500 250,500 111.93,500 0,388.077 0,250 0,111.93 111.93,0 250,0 Z"
   id="path910"
   style="fill:#00aad4;fill-opacity:1" />
</g></g><g
     transform="matrix(0.16,0,0,0.16,1920,1280)"
     id="g920"><g
       style="fill:#00aad4;fill-opacity:1"
       id="g918">
<path
   d="M 250,0 C 388.077,0 500,111.93 500,250 500,388.077 388.077,500 250,500 111.93,500 0,388.077 0,250 0,111.93 111.93,0 250,0 Z"
   id="path916"
   style="fill:#3a0dfe;fill-opacity:1" />
</g></g><g
     transform="matrix(0.16,0,0,0.16,640,1360)"
     id="g926"><g
       style="fill:#00aad4;fill-opacity:1"
       id="g924">
<path
   d="M 250,0 C 388.077,0 500,111.93 500,250 500,388.077 388.077,500 250,500 111.93,500 0,388.077 0,250 0,111.93 111.93,0 250,0 Z"
   id="path922"
   style="fill:#00aad4;fill-opacity:1" />
</g></g><g
     transform="matrix(0.16,0,0,0.16,800,1360)"
     id="g932"><g
       style="fill:#00aad4;fill-opacity:1"
       id="g930">
<path
   d="M 250,0 C 388.077,0 500,111.93 500,250 500,388.077 388.077,500 250,500 111.93,500 0,388.077 0,250 0,111.93 111.93,0 250,0 Z"
   id="path928"
   style="fill:#00aad4;fill-opacity:1" />
</g></g><g
     transform="matrix(0.16,0,0,0.16,880,1360)"
     id="g938"><g
       style="fill:#00aad4;fill-opacity:1"
       id="g936">
<path
   d="M 250,0 C 388.077,0 500,111.93 500,250 500,388.077 388.077,500 250,500 111.93,500 0,388.077 0,250 0,111.93 111.93,0 250,0 Z"
   id="path934"
   style="fill:#00aad4;fill-opacity:1" />
</g></g><g
     transform="matrix(0.16,0,0,0.16,960,1360)"
     id="g944"><g
       style="fill:#00aad4;fill-opacity:1"
       id="g942">
<path
   d="M 250,0 C 388.077,0 500,111.93 500,250 500,388.077 388.077,500 250,500 111.93,500 0,388.077 0,250 0,111.93 111.93,0 250,0 Z"
   id="path940"
   style="fill:#2d00f2;fill-opacity:1" />
</g></g><g
     transform="matrix(0.16,0,0,0.16,1200,1360)"
     id="g950"><g
       style="fill:#00aad4;fill-opacity:1"
       id="g948">
<path
   d="M 250,0 C 388.077,0 500,111.93 500,250 500,388.077 388.077,500 250,500 111.93,500 0,388.077 0,250 0,111.93 111.93,0 250,0 Z"
   id="path946"
   style="fill:#2d00f2;fill-opacity:1" />
</g></g><g
     transform="matrix(0.16,0,0,0.16,1280,1360)"
     id="g956"><g
       style="fill:#00aad4;fill-opacity:1"
       id="g954">
<path
   d="M 250,0 C 388.077,0 500,111.93 500,250 500,388.077 388.077,500 250,500 111.93,500 0,388.077 0,250 0,111.93 111.93,0 250,0 Z"
   id="path952"
   style="fill:#00aad4;fill-opacity:1" />
</g></g><g
     transform="matrix(0.16,0,0,0.16,1600,1360)"
     id="g962"><g
       style="fill:#00aad4;fill-opacity:1"
       id="g960">
<path
   d="M 250,0 C 388.077,0 500,111.93 500,250 500,388.077 388.077,500 250,500 111.93,500 0,388.077 0,250 0,111.93 111.93,0 250,0 Z"
   id="path958"
   style="fill:#00aad4;fill-opacity:1" />
</g></g><g
     transform="matrix(0.16,0,0,0.16,1680,1360)"
     id="g968"><g
       style="fill:#00aad4;fill-opacity:1"
       id="g966">
<path
   d="M 250,0 C 388.077,0 500,111.93 500,250 500,388.077 388.077,500 250,500 111.93,500 0,388.077 0,250 0,111.93 111.93,0 250,0 Z"
   id="path964"
   style="fill:#00aad4;fill-opacity:1" />
</g></g><g
     transform="matrix(0.16,0,0,0.16,1840,1360)"
     id="g974"><g
       style="fill:#00aad4;fill-opacity:1"
       id="g972">
<path
   d="M 250,0 C 388.077,0 500,111.93 500,250 500,388.077 388.077,500 250,500 111.93,500 0,388.077 0,250 0,111.93 111.93,0 250,0 Z"
   id="path970"
   style="fill:#00aad4;fill-opacity:1" />
</g></g><g
     transform="matrix(0.16,0,0,0.16,1920,1360)"
     id="g980"><g
       style="fill:#00aad4;fill-opacity:1"
       id="g978">
<path
   d="M 250,0 C 388.077,0 500,111.93 500,250 500,388.077 388.077,500 250,500 111.93,500 0,388.077 0,250 0,111.93 111.93,0 250,0 Z"
   id="path976"
   style="fill:#00aad4;fill-opacity:1" />
</g></g><g
     transform="matrix(0.16,0,0,0.16,720,1440)"
     id="g986"><g
       style="fill:#00aad4;fill-opacity:1"
       id="g984">
<path
   d="M 250,0 C 388.077,0 500,111.93 500,250 500,388.077 388.077,500 250,500 111.93,500 0,388.077 0,250 0,111.93 111.93,0 250,0 Z"
   id="path982"
   style="fill:#2d00f2;fill-opacity:1" />
</g></g><g
     transform="matrix(0.16,0,0,0.16,800,1440)"
     id="g992"><g
       style="fill:#00aad4;fill-opacity:1"
       id="g990">
<path
   d="M 250,0 C 388.077,0 500,111.93 500,250 500,388.077 388.077,500 250,500 111.93,500 0,388.077 0,250 0,111.93 111.93,0 250,0 Z"
   id="path988"
   style="fill:#2d00f2;fill-opacity:1" />
</g></g><g
     transform="matrix(0.16,0,0,0.16,960,1440)"
     id="g998"><g
       style="fill:#00aad4;fill-opacity:1"
       id="g996">
<path
   d="M 250,0 C 388.077,0 500,111.93 500,250 500,388.077 388.077,500 250,500 111.93,500 0,388.077 0,250 0,111.93 111.93,0 250,0 Z"
   id="path994"
   style="fill:#2d00f2;fill-opacity:1" />
</g></g><g
     transform="matrix(0.16,0,0,0.16,1280,1440)"
     id="g1004"><g
       style="fill:#00aad4;fill-opacity:1"
       id="g1002">
<path
   d="M 250,0 C 388.077,0 500,111.93 500,250 500,388.077 388.077,500 250,500 111.93,500 0,388.077 0,250 0,111.93 111.93,0 250,0 Z"
   id="path1000"
   style="fill:#3a0dfe;fill-opacity:1" />
</g></g><g
     transform="matrix(0.16,0,0,0.16,1440,1440)"
     id="g1010"><g
       style="fill:#00aad4;fill-opacity:1"
       id="g1008">
<path
   d="M 250,0 C 388.077,0 500,111.93 500,250 500,388.077 388.077,500 250,500 111.93,500 0,388.077 0,250 0,111.93 111.93,0 250,0 Z"
   id="path1006"
   style="fill:#2400c4;fill-opacity:1" />
</g></g><g
     transform="matrix(0.16,0,0,0.16,1600,1440)"
     id="g1016"><g
       style="fill:#00aad4;fill-opacity:1"
       id="g1014">
<path
   d="M 250,0 C 388.077,0 500,111.93 500,250 500,388.077 388.077,500 250,500 111.93,500 0,388.077 0,250 0,111.93 111.93,0 250,0 Z"
   id="path1012"
   style="fill:#2400c4;fill-opacity:1" />
</g></g><g
     transform="matrix(0.16,0,0,0.16,1840,1440)"
     id="g1022"><g
       style="fill:#00aad4;fill-opacity:1"
       id="g1020">
<path
   d="M 250,0 C 388.077,0 500,111.93 500,250 500,388.077 388.077,500 250,500 111.93,500 0,388.077 0,250 0,111.93 111.93,0 250,0 Z"
   id="path1018"
   style="fill:#2400c4;fill-opacity:1" />
</g></g><g
     transform="matrix(0.16,0,0,0.16,1920,1440)"
     id="g1028"><g
       style="fill:#00aad4;fill-opacity:1"
       id="g1026">
<path
   d="M 250,0 C 388.077,0 500,111.93 500,250 500,388.077 388.077,500 250,500 111.93,500 0,388.077 0,250 0,111.93 111.93,0 250,0 Z"
   id="path1024"
   style="fill:#2400c4;fill-opacity:1" />
</g></g><g
     transform="matrix(0.16,0,0,0.16,640,1520)"
     id="g1034"><g
       style="fill:#00aad4;fill-opacity:1"
       id="g1032">
<path
   d="M 250,0 C 388.077,0 500,111.93 500,250 500,388.077 388.077,500 250,500 111.93,500 0,388.077 0,250 0,111.93 111.93,0 250,0 Z"
   id="path1030"
   style="fill:#00aad4;fill-opacity:1" />
</g></g><g
     transform="matrix(0.16,0,0,0.16,960,1520)"
     id="g1040"><g
       style="fill:#00aad4;fill-opacity:1"
       id="g1038">
<path
   d="M 250,0 C 388.077,0 500,111.93 500,250 500,388.077 388.077,500 250,500 111.93,500 0,388.077 0,250 0,111.93 111.93,0 250,0 Z"
   id="path1036"
   style="fill:#2d00f2;fill-opacity:1" />
</g></g><g
     transform="matrix(0.16,0,0,0.16,1120,1520)"
     id="g1046"><g
       style="fill:#00aad4;fill-opacity:1"
       id="g1044">
<path
   d="M 250,0 C 388.077,0 500,111.93 500,250 500,388.077 388.077,500 250,500 111.93,500 0,388.077 0,250 0,111.93 111.93,0 250,0 Z"
   id="path1042"
   style="fill:#2d00f2;fill-opacity:1" />
</g></g><g
     transform="matrix(0.16,0,0,0.16,1280,1520)"
     id="g1052"><g
       style="fill:#00aad4;fill-opacity:1"
       id="g1050">
<path
   d="M 250,0 C 388.077,0 500,111.93 500,250 500,388.077 388.077,500 250,500 111.93,500 0,388.077 0,250 0,111.93 111.93,0 250,0 Z"
   id="path1048"
   style="fill:#00aad4;fill-opacity:1" />
</g></g><g
     transform="matrix(0.16,0,0,0.16,1600,1520)"
     id="g1058"><g
       style="fill:#00aad4;fill-opacity:1"
       id="g1056">
<path
   d="M 250,0 C 388.077,0 500,111.93 500,250 500,388.077 388.077,500 250,500 111.93,500 0,388.077 0,250 0,111.93 111.93,0 250,0 Z"
   id="path1054"
   style="fill:#00aad4;fill-opacity:1" />
</g></g><g
     transform="matrix(0.16,0,0,0.16,1680,1520)"
     id="g1064"><g
       style="fill:#00aad4;fill-opacity:1"
       id="g1062">
<path
   d="M 250,0 C 388.077,0 500,111.93 500,250 500,388.077 388.077,500 250,500 111.93,500 0,388.077 0,250 0,111.93 111.93,0 250,0 Z"
   id="path1060"
   style="fill:#00aad4;fill-opacity:1" />
</g></g><g
     transform="matrix(0.16,0,0,0.16,640,1600)"
     id="g1070"><g
       style="fill:#00aad4;fill-opacity:1"
       id="g1068">
<path
   d="M 250,0 C 388.077,0 500,111.93 500,250 500,388.077 388.077,500 250,500 111.93,500 0,388.077 0,250 0,111.93 111.93,0 250,0 Z"
   id="path1066"
   style="fill:#00aad4;fill-opacity:1" />
</g></g><g
     transform="matrix(0.16,0,0,0.16,800,1600)"
     id="g1076"><g
       style="fill:#00aad4;fill-opacity:1"
       id="g1074">
<path
   d="M 250,0 C 388.077,0 500,111.93 500,250 500,388.077 388.077,500 250,500 111.93,500 0,388.077 0,250 0,111.93 111.93,0 250,0 Z"
   id="path1072"
   style="fill:#00aad4;fill-opacity:1" />
</g></g><g
     transform="matrix(0.16,0,0,0.16,1040,1600)"
     id="g1082"><g
       style="fill:#00aad4;fill-opacity:1"
       id="g1080">
<path
   d="M 250,0 C 388.077,0 500,111.93 500,250 500,388.077 388.077,500 250,500 111.93,500 0,388.077 0,250 0,111.93 111.93,0 250,0 Z"
   id="path1078"
   style="fill:#00aad4;fill-opacity:1" />
</g></g><g
     transform="matrix(0.16,0,0,0.16,1120,1600)"
     id="g1088"><g
       style="fill:#00aad4;fill-opacity:1"
       id="g1086">
<path
   d="M 250,0 C 388.077,0 500,111.93 500,250 500,388.077 388.077,500 250,500 111.93,500 0,388.077 0,250 0,111.93 111.93,0 250,0 Z"
   id="path1084"
   style="fill:#00aad4;fill-opacity:1" />
</g></g><g
     transform="matrix(0.16,0,0,0.16,1200,1600)"
     id="g1094"><g
       style="fill:#00aad4;fill-opacity:1"
       id="g1092">
<path
   d="M 250,0 C 388.077,0 500,111.93 500,250 500,388.077 388.077,500 250,500 111.93,500 0,388.077 0,250 0,111.93 111.93,0 250,0 Z"
   id="path1090"
   style="fill:#2d00f2;fill-opacity:1" />
</g></g><g
     transform="matrix(0.16,0,0,0.16,1280,1600)"
     id="g1100"><g
       style="fill:#00aad4;fill-opacity:1"
       id="g1098">
<path
   d="M 250,0 C 388.077,0 500,111.93 500,250 500,388.077 388.077,500 250,500 111.93,500 0,388.077 0,250 0,111.93 111.93,0 250,0 Z"
   id="path1096"
   style="fill:#00aad4;fill-opacity:1" />
</g></g><g
     transform="matrix(0.16,0,0,0.16,1360,1600)"
     id="g1106"><g
       style="fill:#00aad4;fill-opacity:1"
       id="g1104">
<path
   d="M 250,0 C 388.077,0 500,111.93 500,250 500,388.077 388.077,500 250,500 111.93,500 0,388.077 0,250 0,111.93 111.93,0 250,0 Z"
   id="path1102"
   style="fill:#00aad4;fill-opacity:1" />
</g></g><g
     transform="matrix(0.16,0,0,0.16,1440,1600)"
     id="g1112"><g
       style="fill:#00aad4;fill-opacity:1"
       id="g1110">
<path
   d="M 250,0 C 388.077,0 500,111.93 500,250 500,388.077 388.077,500 250,500 111.93,500 0,388.077 0,250 0,111.93 111.93,0 250,0 Z"
   id="path1108"
   style="fill:#00aad4;fill-opacity:1" />
</g></g><g
     transform="matrix(0.16,0,0,0.16,1520,1600)"
     id="g1118"><g
       style="fill:#00aad4;fill-opacity:1"
       id="g1116">
<path
   d="M 250,0 C 388.077,0 500,111.93 500,250 500,388.077 388.077,500 250,500 111.93,500 0,388.077 0,250 0,111.93 111.93,0 250,0 Z"
   id="path1114"
   style="fill:#00aad4;fill-opacity:1" />
</g></g><g
     transform="matrix(0.16,0,0,0.16,1600,1600)"
     id="g1124"><g
       style="fill:#00aad4;fill-opacity:1"
       id="g1122">
<path
   d="M 250,0 C 388.077,0 500,111.93 500,250 500,388.077 388.077,500 250,500 111.93,500 0,388.077 0,250 0,111.93 111.93,0 250,0 Z"
   id="path1120"
   style="fill:#00aad4;fill-opacity:1" />
</g></g><g
     transform="matrix(0.16,0,0,0.16,1680,1600)"
     id="g1130"><g
       style="fill:#00aad4;fill-opacity:1"
       id="g1128">
<path
   d="M 250,0 C 388.077,0 500,111.93 500,250 500,388.077 388.077,500 250,500 111.93,500 0,388.077 0,250 0,111.93 111.93,0 250,0 Z"
   id="path1126"
   style="fill:#00aad4;fill-opacity:1" />
</g></g><g
     transform="matrix(0.16,0,0,0.16,1760,1600)"
     id="g1136"><g
       style="fill:#00aad4;fill-opacity:1"
       id="g1134">
<path
   d="M 250,0 C 388.077,0 500,111.93 500,250 500,388.077 388.077,500 250,500 111.93,500 0,388.077 0,250 0,111.93 111.93,0 250,0 Z"
   id="path1132"
   style="fill:#00aad4;fill-opacity:1" />
</g></g><g
     transform="matrix(0.16,0,0,0.16,640,1680)"
     id="g1142"><g
       style="fill:#00aad4;fill-opacity:1"
       id="g1140">
<path
   d="M 250,0 C 388.077,0 500,111.93 500,250 500,388.077 388.077,500 250,500 111.93,500 0,388.077 0,250 0,111.93 111.93,0 250,0 Z"
   id="path1138"
   style="fill:#00aad4;fill-opacity:1" />
</g></g><g
     transform="matrix(0.16,0,0,0.16,880,1680)"
     id="g1148"><g
       style="fill:#00aad4;fill-opacity:1"
       id="g1146">
<path
   d="M 250,0 C 388.077,0 500,111.93 500,250 500,388.077 388.077,500 250,500 111.93,500 0,388.077 0,250 0,111.93 111.93,0 250,0 Z"
   id="path1144"
   style="fill:#2d00f2;fill-opacity:1" />
</g></g><g
     transform="matrix(0.16,0,0,0.16,960,1680)"
     id="g1154"><g
       style="fill:#00aad4;fill-opacity:1"
       id="g1152">
<path
   d="M 250,0 C 388.077,0 500,111.93 500,250 500,388.077 388.077,500 250,500 111.93,500 0,388.077 0,250 0,111.93 111.93,0 250,0 Z"
   id="path1150"
   style="fill:#2d00f2;fill-opacity:1" />
</g></g><g
     transform="matrix(0.16,0,0,0.16,1040,1680)"
     id="g1160"><g
       style="fill:#00aad4;fill-opacity:1"
       id="g1158">
<path
   d="M 250,0 C 388.077,0 500,111.93 500,250 500,388.077 388.077,500 250,500 111.93,500 0,388.077 0,250 0,111.93 111.93,0 250,0 Z"
   id="path1156"
   style="fill:#2d00f2;fill-opacity:1" />
</g></g><g
     transform="matrix(0.16,0,0,0.16,1280,1680)"
     id="g1166"><g
       style="fill:#00aad4;fill-opacity:1"
       id="g1164">
<path
   d="M 250,0 C 388.077,0 500,111.93 500,250 500,388.077 388.077,500 250,500 111.93,500 0,388.077 0,250 0,111.93 111.93,0 250,0 Z"
   id="path1162"
   style="fill:#00aad4;fill-opacity:1" />
</g></g><g
     transform="matrix(0.16,0,0,0.16,1600,1680)"
     id="g1172"><g
       style="fill:#00aad4;fill-opacity:1"
       id="g1170">
<path
   d="M 250,0 C 388.077,0 500,111.93 500,250 500,388.077 388.077,500 250,500 111.93,500 0,388.077 0,250 0,111.93 111.93,0 250,0 Z"
   id="path1168"
   style="fill:#00aad4;fill-opacity:1" />
</g></g><g
     transform="matrix(0.16,0,0,0.16,1680,1680)"
     id="g1178"><g
       style="fill:#00aad4;fill-opacity:1"
       id="g1176">
<path
   d="M 250,0 C 388.077,0 500,111.93 500,250 500,388.077 388.077,500 250,500 111.93,500 0,388.077 0,250 0,111.93 111.93,0 250,0 Z"
   id="path1174"
   style="fill:#3a0dfe;fill-opacity:1" />
</g></g><g
     transform="matrix(0.16,0,0,0.16,1840,1680)"
     id="g1184"><g
       style="fill:#00aad4;fill-opacity:1"
       id="g1182">
<path
   d="M 250,0 C 388.077,0 500,111.93 500,250 500,388.077 388.077,500 250,500 111.93,500 0,388.077 0,250 0,111.93 111.93,0 250,0 Z"
   id="path1180"
   style="fill:#00aad4;fill-opacity:1" />
</g></g><g
     transform="matrix(0.16,0,0,0.16,1920,1680)"
     id="g1190"><g
       style="fill:#00aad4;fill-opacity:1"
       id="g1188">
<path
   d="M 250,0 C 388.077,0 500,111.93 500,250 500,388.077 388.077,500 250,500 111.93,500 0,388.077 0,250 0,111.93 111.93,0 250,0 Z"
   id="path1186"
   style="fill:#2400c4;fill-opacity:1" />
</g></g><g
     transform="matrix(0.16,0,0,0.16,640,1760)"
     id="g1196"><g
       style="fill:#00aad4;fill-opacity:1"
       id="g1194">
<path
   d="M 250,0 C 388.077,0 500,111.93 500,250 500,388.077 388.077,500 250,500 111.93,500 0,388.077 0,250 0,111.93 111.93,0 250,0 Z"
   id="path1192"
   style="fill:#00aad4;fill-opacity:1" />
</g></g><g
     transform="matrix(0.16,0,0,0.16,800,1760)"
     id="g1202"><g
       style="fill:#00aad4;fill-opacity:1"
       id="g1200">
<path
   d="M 250,0 C 388.077,0 500,111.93 500,250 500,388.077 388.077,500 250,500 111.93,500 0,388.077 0,250 0,111.93 111.93,0 250,0 Z"
   id="path1198"
   style="fill:#00aad4;fill-opacity:1" />
</g></g><g
     transform="matrix(0.16,0,0,0.16,1040,1760)"
     id="g1208"><g
       style="fill:#00aad4;fill-opacity:1"
       id="g1206">
<path
   d="M 250,0 C 388.077,0 500,111.93 500,250 500,388.077 388.077,500 250,500 111.93,500 0,388.077 0,250 0,111.93 111.93,0 250,0 Z"
   id="path1204"
   style="fill:#00aad4;fill-opacity:1" />
</g></g><g
     transform="matrix(0.16,0,0,0.16,1200,1760)"
     id="g1214"><g
       style="fill:#00aad4;fill-opacity:1"
       id="g1212">
<path
   d="M 250,0 C 388.077,0 500,111.93 500,250 500,388.077 388.077,500 250,500 111.93,500 0,388.077 0,250 0,111.93 111.93,0 250,0 Z"
   id="path1210"
   style="fill:#00aad4;fill-opacity:1" />
</g></g><g
     transform="matrix(0.16,0,0,0.16,1280,1760)"
     id="g1220"><g
       style="fill:#00aad4;fill-opacity:1"
       id="g1218">
<path
   d="M 250,0 C 388.077,0 500,111.93 500,250 500,388.077 388.077,500 250,500 111.93,500 0,388.077 0,250 0,111.93 111.93,0 250,0 Z"
   id="path1216"
   style="fill:#3a0dfe;fill-opacity:1" />
</g></g><g
     transform="matrix(0.16,0,0,0.16,1520,1760)"
     id="g1226"><g
       style="fill:#00aad4;fill-opacity:1"
       id="g1224">
<path
   d="M 250,0 C 388.077,0 500,111.93 500,250 500,388.077 388.077,500 250,500 111.93,500 0,388.077 0,250 0,111.93 111.93,0 250,0 Z"
   id="path1222"
   style="fill:#00aad4;fill-opacity:1" />
</g></g><g
     transform="matrix(0.16,0,0,0.16,1680,1760)"
     id="g1232"><g
       style="fill:#00aad4;fill-opacity:1"
       id="g1230">
<path
   d="M 250,0 C 388.077,0 500,111.93 500,250 500,388.077 388.077,500 250,500 111.93,500 0,388.077 0,250 0,111.93 111.93,0 250,0 Z"
   id="path1228"
   style="fill:#00aad4;fill-opacity:1" />
</g></g><g
     transform="matrix(0.16,0,0,0.16,1920,1760)"
     id="g1238"><g
       style="fill:#00aad4;fill-opacity:1"
       id="g1236">
<path
   d="M 250,0 C 388.077,0 500,111.93 500,250 500,388.077 388.077,500 250,500 111.93,500 0,388.077 0,250 0,111.93 111.93,0 250,0 Z"
   id="path1234"
   style="fill:#2400c4;fill-opacity:1" />
</g></g><g
     transform="matrix(0.16,0,0,0.16,800,1840)"
     id="g1244"><g
       style="fill:#00aad4;fill-opacity:1"
       id="g1242">
<path
   d="M 250,0 C 388.077,0 500,111.93 500,250 500,388.077 388.077,500 250,500 111.93,500 0,388.077 0,250 0,111.93 111.93,0 250,0 Z"
   id="path1240"
   style="fill:#00aad4;fill-opacity:1" />
</g></g><g
     transform="matrix(0.16,0,0,0.16,880,1840)"
     id="g1250"><g
       style="fill:#00aad4;fill-opacity:1"
       id="g1248">
<path
   d="M 250,0 C 388.077,0 500,111.93 500,250 500,388.077 388.077,500 250,500 111.93,500 0,388.077 0,250 0,111.93 111.93,0 250,0 Z"
   id="path1246"
   style="fill:#2d00f2;fill-opacity:1" />
</g></g><g
     transform="matrix(0.16,0,0,0.16,1120,1840)"
     id="g1256"><g
       style="fill:#00aad4;fill-opacity:1"
       id="g1254">
<path
   d="M 250,0 C 388.077,0 500,111.93 500,250 500,388.077 388.077,500 250,500 111.93,500 0,388.077 0,250 0,111.93 111.93,0 250,0 Z"
   id="path1252"
   style="fill:#2d00f2;fill-opacity:1" />
</g></g><g
     transform="matrix(0.16,0,0,0.16,1200,1840)"
     id="g1262"><g
       style="fill:#00aad4;fill-opacity:1"
       id="g1260">
<path
   d="M 250,0 C 388.077,0 500,111.93 500,250 500,388.077 388.077,500 250,500 111.93,500 0,388.077 0,250 0,111.93 111.93,0 250,0 Z"
   id="path1258"
   style="fill:#3a0dfe;fill-opacity:1" />
</g></g><g
     transform="matrix(0.16,0,0,0.16,1280,1840)"
     id="g1268"><g
       style="fill:#00aad4;fill-opacity:1"
       id="g1266">
<path
   d="M 250,0 C 388.077,0 500,111.93 500,250 500,388.077 388.077,500 250,500 111.93,500 0,388.077 0,250 0,111.93 111.93,0 250,0 Z"
   id="path1264"
   style="fill:#00aad4;fill-opacity:1" />
</g></g><g
     transform="matrix(0.16,0,0,0.16,1440,1840)"
     id="g1274"><g
       style="fill:#00aad4;fill-opacity:1"
       id="g1272">
<path
   d="M 250,0 C 388.077,0 500,111.93 500,250 500,388.077 388.077,500 250,500 111.93,500 0,388.077 0,250 0,111.93 111.93,0 250,0 Z"
   id="path1270"
   style="fill:#2400c4;fill-opacity:1" />
</g></g><g
     transform="matrix(0.16,0,0,0.16,1520,1840)"
     id="g1280"><g
       style="fill:#00aad4;fill-opacity:1"
       id="g1278">
<path
   d="M 250,0 C 388.077,0 500,111.93 500,250 500,388.077 388.077,500 250,500 111.93,500 0,388.077 0,250 0,111.93 111.93,0 250,0 Z"
   id="path1276"
   style="fill:#00aad4;fill-opacity:1" />
</g></g><g
     transform="matrix(0.16,0,0,0.16,1600,1840)"
     id="g1286"><g
       style="fill:#00aad4;fill-opacity:1"
       id="g1284">
<path
   d="M 250,0 C 388.077,0 500,111.93 500,250 500,388.077 388.077,500 250,500 111.93,500 0,388.077 0,250 0,111.93 111.93,0 250,0 Z"
   id="path1282"
   style="fill:#00aad4;fill-opacity:1" />
</g></g><g
     transform="matrix(0.16,0,0,0.16,1920,1840)"
     id="g1292"><g
       style="fill:#00aad4;fill-opacity:1"
       id="g1290">
<path
   d="M 250,0 C 388.077,0 500,111.93 500,250 500,388.077 388.077,500 250,500 111.93,500 0,388.077 0,250 0,111.93 111.93,0 250,0 Z"
   id="path1288"
   style="fill:#2400c4;fill-opacity:1" />
</g></g><g
     transform="matrix(0.16,0,0,0.16,640,1920)"
     id="g1298"><g
       style="fill:#00aad4;fill-opacity:1"
       id="g1296">
<path
   d="M 250,0 C 388.077,0 500,111.93 500,250 500,388.077 388.077,500 250,500 111.93,500 0,388.077 0,250 0,111.93 111.93,0 250,0 Z"
   id="path1294"
   style="fill:#2d00f2;fill-opacity:1" />
</g></g><g
     transform="matrix(0.16,0,0,0.16,720,1920)"
     id="g1304"><g
       style="fill:#00aad4;fill-opacity:1"
       id="g1302">
<path
   d="M 250,0 C 388.077,0 500,111.93 500,250 500,388.077 388.077,500 250,500 111.93,500 0,388.077 0,250 0,111.93 111.93,0 250,0 Z"
   id="path1300"
   style="fill:#2d00f2;fill-opacity:1" />
</g></g><g
     transform="matrix(0.16,0,0,0.16,880,1920)"
     id="g1310"><g
       style="fill:#00aad4;fill-opacity:1"
       id="g1308">
<path
   d="M 250,0 C 388.077,0 500,111.93 500,250 500,388.077 388.077,500 250,500 111.93,500 0,388.077 0,250 0,111.93 111.93,0 250,0 Z"
   id="path1306"
   style="fill:#2d00f2;fill-opacity:1" />
</g></g><g
     transform="matrix(0.16,0,0,0.16,960,1920)"
     id="g1316"><g
       style="fill:#00aad4;fill-opacity:1"
       id="g1314">
<path
   d="M 250,0 C 388.077,0 500,111.93 500,250 500,388.077 388.077,500 250,500 111.93,500 0,388.077 0,250 0,111.93 111.93,0 250,0 Z"
   id="path1312"
   style="fill:#00aad4;fill-opacity:1" />
</g></g><g
     transform="matrix(0.16,0,0,0.16,1040,1920)"
     id="g1322"><g
       style="fill:#00aad4;fill-opacity:1"
       id="g1320">
<path
   d="M 250,0 C 388.077,0 500,111.93 500,250 500,388.077 388.077,500 250,500 111.93,500 0,388.077 0,250 0,111.93 111.93,0 250,0 Z"
   id="path1318"
   style="fill:#00aad4;fill-opacity:1" />
</g></g><g
     transform="matrix(0.16,0,0,0.16,1120,1920)"
     id="g1328"><g
       style="fill:#00aad4;fill-opacity:1"
       id="g1326">
<path
   d="M 250,0 C 388.077,0 500,111.93 500,250 500,388.077 388.077,500 250,500 111.93,500 0,388.077 0,250 0,111.93 111.93,0 250,0 Z"
   id="path1324"
   style="fill:#2d00f2;fill-opacity:1" />
</g></g><g
     transform="matrix(0.16,0,0,0.16,1360,1920)"
     id="g1334"><g
       style="fill:#00aad4;fill-opacity:1"
       id="g1332">
<path
   d="M 250,0 C 388.077,0 500,111.93 500,250 500,388.077 388.077,500 250,500 111.93,500 0,388.077 0,250 0,111.93 111.93,0 250,0 Z"
   id="path1330"
   style="fill:#00aad4;fill-opacity:1" />
</g></g><g
     transform="matrix(0.16,0,0,0.16,1440,1920)"
     id="g1340"><g
       style="fill:#00aad4;fill-opacity:1"
       id="g1338">
<path
   d="M 250,0 C 388.077,0 500,111.93 500,250 500,388.077 388.077,500 250,500 111.93,500 0,388.077 0,250 0,111.93 111.93,0 250,0 Z"
   id="path1336"
   style="fill:#2400c4;fill-opacity:1" />
</g></g><g
     transform="matrix(0.16,0,0,0.16,1600,1920)"
     id="g1346"><g
       style="fill:#00aad4;fill-opacity:1"
       id="g1344">
<path
   d="M 250,0 C 388.077,0 500,111.93 500,250 500,388.077 388.077,500 250,500 111.93,500 0,388.077 0,250 0,111.93 111.93,0 250,0 Z"
   id="path1342"
   style="fill:#2400c4;fill-opacity:1" />
</g></g><g
     transform="matrix(0.16,0,0,0.16,1680,1920)"
     id="g1352"><g
       style="fill:#00aad4;fill-opacity:1"
       id="g1350">
<path
   d="M 250,0 C 388.077,0 500,111.93 500,250 500,388.077 388.077,500 250,500 111.93,500 0,388.077 0,250 0,111.93 111.93,0 250,0 Z"
   id="path1348"
   style="fill:#2400c4;fill-opacity:1" />
</g></g><g
     transform="matrix(0.16,0,0,0.16,1840,1920)"
     id="g1358"><g
       style="fill:#00aad4;fill-opacity:1"
       id="g1356">
<path
   d="M 250,0 C 388.077,0 500,111.93 500,250 500,388.077 388.077,500 250,500 111.93,500 0,388.077 0,250 0,111.93 111.93,0 250,0 Z"
   id="path1354"
   style="fill:#2400c4;fill-opacity:1" />
</g></g><g
     transform="matrix(0.16,0,0,0.16,1920,1920)"
     id="g1364"><g
       style="fill:#00aad4;fill-opacity:1"
       id="g1362">
<path
   d="M 250,0 C 388.077,0 500,111.93 500,250 500,388.077 388.077,500 250,500 111.93,500 0,388.077 0,250 0,111.93 111.93,0 250,0 Z"
   id="path1360"
   style="fill:#2400c4;fill-opacity:1" />
</g></g><g
     transform="scale(5.5445545)"
     id="g1374"><g
       style="fill:#00aad4;fill-opacity:1"
       id="g1372">
<g
   id="g1370"
   style="fill:#00aad4;fill-opacity:1">
	<path
   style="fill:none"
   d="M 90.055,71.25 C 87.113,70.234 85,67.451 85,64.166 85,60.881 87.113,58.1 90.052,57.082 87.113,56.066 85,53.283 85,50 85,46.716 87.113,43.932 90.052,42.917 87.113,41.899 85,39.117 85,35.833 85,32.549 87.113,29.766 90.052,28.75 87.113,27.733 85,24.951 85,21.667 85,18.383 87.113,15.599 90.053,14.584 87.882,13.834 86.167,12.12 85.417,9.949 84.4,12.887 81.618,15 78.334,15 75.049,15 72.266,12.886 71.25,9.945 70.234,12.886 67.451,15 64.166,15 60.882,15 58.1,12.887 57.083,9.949 56.066,12.887 53.284,15 50,15 46.716,15 43.932,12.887 42.917,9.948 41.9,12.887 39.117,15 35.833,15 32.549,15 29.766,12.887 28.75,9.949 27.734,12.887 24.951,15 21.667,15 c -3.284,0 -6.068,-2.114 -7.083,-5.054 -0.75,2.172 -2.465,3.887 -4.636,4.637 2.938,1.016 5.052,3.8 5.052,7.084 0,3.284 -2.114,6.066 -5.052,7.083 2.939,1.016 5.052,3.799 5.052,7.083 0,3.284 -2.113,6.066 -5.052,7.083 C 12.887,43.932 15,46.715 15,50 15,53.285 12.887,56.068 9.949,57.082 12.887,58.1 15,60.881 15,64.166 c 0,3.285 -2.115,6.068 -5.055,7.084 2.941,1.016 5.055,3.799 5.055,7.084 0,3.283 -2.114,6.066 -5.052,7.082 2.17,0.75 3.885,2.465 4.635,4.635 1.016,-2.938 3.8,-5.051 7.084,-5.051 3.284,0 6.067,2.113 7.083,5.051 C 29.766,87.113 32.549,85 35.833,85 39.117,85 41.9,87.113 42.916,90.051 43.932,87.113 46.715,85 50,85 c 3.285,0 6.068,2.113 7.083,5.051 C 58.1,87.113 60.882,85 64.166,85 c 3.285,0 6.068,2.113 7.084,5.055 C 72.266,87.113 75.049,85 78.334,85 c 3.284,0 6.066,2.113 7.083,5.051 0.75,-2.17 2.465,-3.885 4.635,-4.635 C 87.113,84.4 85,81.617 85,78.334 c 0,-3.285 2.113,-6.068 5.055,-7.084 z"
   id="path1366" />
	<path
   d="M 100,21.667 C 100,18.383 97.887,15.599 94.947,14.584 97.887,13.567 100,10.784 100,7.5 100,3.356 96.643,0 92.5,0 89.216,0 86.434,2.112 85.417,5.051 84.4,2.112 81.618,0 78.334,0 75.049,0 72.266,2.114 71.25,5.054 70.234,2.114 67.451,0 64.166,0 60.882,0 58.1,2.112 57.083,5.051 56.066,2.112 53.284,0 50,0 46.716,0 43.932,2.112 42.917,5.052 41.9,2.112 39.117,0 35.833,0 32.549,0 29.766,2.112 28.75,5.051 27.734,2.112 24.951,0 21.667,0 18.383,0 15.599,2.114 14.584,5.053 13.568,2.114 10.784,0 7.5,0 3.357,0 0,3.356 0,7.5 0,10.784 2.114,13.567 5.053,14.583 2.114,15.599 0,18.383 0,21.667 0,24.951 2.113,27.733 5.051,28.75 2.113,29.766 0,32.549 0,35.833 0,39.117 2.113,41.899 5.052,42.916 2.113,43.932 0,46.715 0,50 0,53.285 2.113,56.068 5.051,57.082 2.113,58.1 0,60.881 0,64.166 0,67.451 2.114,70.234 5.054,71.25 2.114,72.266 0,75.049 0,78.334 0,81.617 2.113,84.4 5.051,85.416 2.113,86.434 0,89.215 0,92.5 c 0,4.143 3.357,7.5 7.5,7.5 0.518,0 1.023,-0.053 1.512,-0.152 2.608,-0.533 4.716,-2.426 5.572,-4.898 1.015,2.938 3.799,5.051 7.083,5.051 3.284,0 6.067,-2.111 7.083,-5.051 1.016,2.938 3.799,5.051 7.083,5.051 3.284,0 6.067,-2.111 7.083,-5.051 1.016,2.937 3.799,5.05 7.084,5.05 3.285,0 6.068,-2.113 7.083,-5.053 1.017,2.938 3.799,5.053 7.083,5.053 3.285,0 6.068,-2.115 7.084,-5.055 1.016,2.939 3.799,5.055 7.084,5.055 3.284,0 6.066,-2.113 7.083,-5.053 1.017,2.94 3.799,5.053 7.083,5.053 4.143,0 7.5,-3.357 7.5,-7.5 0,-3.285 -2.113,-6.066 -5.052,-7.084 C 97.887,84.4 100,81.617 100,78.334 100,75.049 97.887,72.266 94.945,71.25 97.884,70.234 100,67.451 100,64.166 100,60.881 97.887,58.1 94.948,57.082 97.887,56.066 100,53.283 100,50 100,46.716 97.887,43.932 94.948,42.917 97.886,41.899 100,39.117 100,35.833 100,32.549 97.887,29.766 94.948,28.75 97.887,27.733 100,24.951 100,21.667 Z m -9.948,63.749 c -2.17,0.75 -3.885,2.465 -4.635,4.635 C 84.4,87.113 81.618,85 78.334,85 75.049,85 72.266,87.113 71.25,90.055 70.234,87.113 67.451,85 64.166,85 60.882,85 58.1,87.113 57.083,90.051 56.066,87.113 53.284,85 50,85 46.716,85 43.932,87.113 42.917,90.051 41.9,87.113 39.117,85 35.833,85 32.549,85 29.766,87.113 28.75,90.051 27.734,87.113 24.951,85 21.667,85 18.383,85 15.599,87.113 14.584,90.051 13.834,87.881 12.119,86.166 9.949,85.416 12.887,84.4 15,81.617 15,78.334 15,75.049 12.885,72.266 9.945,71.25 12.886,70.234 15,67.451 15,64.166 15,60.881 12.886,58.1 9.948,57.082 12.887,56.066 15,53.283 15,50 15,46.716 12.887,43.932 9.948,42.917 12.887,41.899 15,39.117 15,35.833 15,32.549 12.887,29.766 9.949,28.75 12.887,27.733 15,24.951 15,21.667 c 0,-3.284 -2.114,-6.068 -5.053,-7.083 2.171,-0.75 3.886,-2.465 4.636,-4.636 1.016,2.938 3.8,5.052 7.084,5.052 3.284,0 6.067,-2.113 7.083,-5.051 C 29.766,12.887 32.549,15 35.833,15 39.117,15 41.9,12.887 42.916,9.948 43.932,12.887 46.715,15 50,15 53.285,15 56.068,12.887 57.083,9.949 58.1,12.887 60.882,15 64.166,15 c 3.285,0 6.068,-2.114 7.084,-5.055 1.016,2.941 3.799,5.055 7.084,5.055 3.284,0 6.066,-2.113 7.083,-5.051 0.75,2.17 2.465,3.885 4.636,4.635 -2.94,1.015 -5.053,3.799 -5.053,7.083 0,3.284 2.113,6.066 5.052,7.083 C 87.113,29.766 85,32.549 85,35.833 c 0,3.284 2.113,6.066 5.052,7.083 C 87.113,43.932 85,46.715 85,50 c 0,3.285 2.113,6.068 5.052,7.082 C 87.113,58.1 85,60.881 85,64.166 c 0,3.285 2.113,6.068 5.055,7.084 C 87.113,72.266 85,75.049 85,78.334 c 0,3.283 2.113,6.066 5.052,7.082 z"
   id="path1368"
   style="fill:#1500b6;fill-opacity:1" />
</g>
</g></g><g
     transform="matrix(5.5445545,0,0,5.5445545,1440,0)"
     id="g1384"><g
       style="fill:#00aad4;fill-opacity:1"
       id="g1382">
<g
   id="g1380"
   style="fill:#00aad4;fill-opacity:1">
	<path
   style="fill:none"
   d="M 90.055,71.25 C 87.113,70.234 85,67.451 85,64.166 85,60.881 87.113,58.1 90.052,57.082 87.113,56.066 85,53.283 85,50 85,46.716 87.113,43.932 90.052,42.917 87.113,41.899 85,39.117 85,35.833 85,32.549 87.113,29.766 90.052,28.75 87.113,27.733 85,24.951 85,21.667 85,18.383 87.113,15.599 90.053,14.584 87.882,13.834 86.167,12.12 85.417,9.949 84.4,12.887 81.618,15 78.334,15 75.049,15 72.266,12.886 71.25,9.945 70.234,12.886 67.451,15 64.166,15 60.882,15 58.1,12.887 57.083,9.949 56.066,12.887 53.284,15 50,15 46.716,15 43.932,12.887 42.917,9.948 41.9,12.887 39.117,15 35.833,15 32.549,15 29.766,12.887 28.75,9.949 27.734,12.887 24.951,15 21.667,15 c -3.284,0 -6.068,-2.114 -7.083,-5.054 -0.75,2.172 -2.465,3.887 -4.636,4.637 2.938,1.016 5.052,3.8 5.052,7.084 0,3.284 -2.114,6.066 -5.052,7.083 2.939,1.016 5.052,3.799 5.052,7.083 0,3.284 -2.113,6.066 -5.052,7.083 C 12.887,43.932 15,46.715 15,50 15,53.285 12.887,56.068 9.949,57.082 12.887,58.1 15,60.881 15,64.166 c 0,3.285 -2.115,6.068 -5.055,7.084 2.941,1.016 5.055,3.799 5.055,7.084 0,3.283 -2.114,6.066 -5.052,7.082 2.17,0.75 3.885,2.465 4.635,4.635 1.016,-2.938 3.8,-5.051 7.084,-5.051 3.284,0 6.067,2.113 7.083,5.051 C 29.766,87.113 32.549,85 35.833,85 39.117,85 41.9,87.113 42.916,90.051 43.932,87.113 46.715,85 50,85 c 3.285,0 6.068,2.113 7.083,5.051 C 58.1,87.113 60.882,85 64.166,85 c 3.285,0 6.068,2.113 7.084,5.055 C 72.266,87.113 75.049,85 78.334,85 c 3.284,0 6.066,2.113 7.083,5.051 0.75,-2.17 2.465,-3.885 4.635,-4.635 C 87.113,84.4 85,81.617 85,78.334 c 0,-3.285 2.113,-6.068 5.055,-7.084 z"
   id="path1376" />
	<path
   d="M 100,21.667 C 100,18.383 97.887,15.599 94.947,14.584 97.887,13.567 100,10.784 100,7.5 100,3.356 96.643,0 92.5,0 89.216,0 86.434,2.112 85.417,5.051 84.4,2.112 81.618,0 78.334,0 75.049,0 72.266,2.114 71.25,5.054 70.234,2.114 67.451,0 64.166,0 60.882,0 58.1,2.112 57.083,5.051 56.066,2.112 53.284,0 50,0 46.716,0 43.932,2.112 42.917,5.052 41.9,2.112 39.117,0 35.833,0 32.549,0 29.766,2.112 28.75,5.051 27.734,2.112 24.951,0 21.667,0 18.383,0 15.599,2.114 14.584,5.053 13.568,2.114 10.784,0 7.5,0 3.357,0 0,3.356 0,7.5 0,10.784 2.114,13.567 5.053,14.583 2.114,15.599 0,18.383 0,21.667 0,24.951 2.113,27.733 5.051,28.75 2.113,29.766 0,32.549 0,35.833 0,39.117 2.113,41.899 5.052,42.916 2.113,43.932 0,46.715 0,50 0,53.285 2.113,56.068 5.051,57.082 2.113,58.1 0,60.881 0,64.166 0,67.451 2.114,70.234 5.054,71.25 2.114,72.266 0,75.049 0,78.334 0,81.617 2.113,84.4 5.051,85.416 2.113,86.434 0,89.215 0,92.5 c 0,4.143 3.357,7.5 7.5,7.5 0.518,0 1.023,-0.053 1.512,-0.152 2.608,-0.533 4.716,-2.426 5.572,-4.898 1.015,2.938 3.799,5.051 7.083,5.051 3.284,0 6.067,-2.111 7.083,-5.051 1.016,2.938 3.799,5.051 7.083,5.051 3.284,0 6.067,-2.111 7.083,-5.051 1.016,2.937 3.799,5.05 7.084,5.05 3.285,0 6.068,-2.113 7.083,-5.053 1.017,2.938 3.799,5.053 7.083,5.053 3.285,0 6.068,-2.115 7.084,-5.055 1.016,2.939 3.799,5.055 7.084,5.055 3.284,0 6.066,-2.113 7.083,-5.053 1.017,2.94 3.799,5.053 7.083,5.053 4.143,0 7.5,-3.357 7.5,-7.5 0,-3.285 -2.113,-6.066 -5.052,-7.084 C 97.887,84.4 100,81.617 100,78.334 100,75.049 97.887,72.266 94.945,71.25 97.884,70.234 100,67.451 100,64.166 100,60.881 97.887,58.1 94.948,57.082 97.887,56.066 100,53.283 100,50 100,46.716 97.887,43.932 94.948,42.917 97.886,41.899 100,39.117 100,35.833 100,32.549 97.887,29.766 94.948,28.75 97.887,27.733 100,24.951 100,21.667 Z m -9.948,63.749 c -2.17,0.75 -3.885,2.465 -4.635,4.635 C 84.4,87.113 81.618,85 78.334,85 75.049,85 72.266,87.113 71.25,90.055 70.234,87.113 67.451,85 64.166,85 60.882,85 58.1,87.113 57.083,90.051 56.066,87.113 53.284,85 50,85 46.716,85 43.932,87.113 42.917,90.051 41.9,87.113 39.117,85 35.833,85 32.549,85 29.766,87.113 28.75,90.051 27.734,87.113 24.951,85 21.667,85 18.383,85 15.599,87.113 14.584,90.051 13.834,87.881 12.119,86.166 9.949,85.416 12.887,84.4 15,81.617 15,78.334 15,75.049 12.885,72.266 9.945,71.25 12.886,70.234 15,67.451 15,64.166 15,60.881 12.886,58.1 9.948,57.082 12.887,56.066 15,53.283 15,50 15,46.716 12.887,43.932 9.948,42.917 12.887,41.899 15,39.117 15,35.833 15,32.549 12.887,29.766 9.949,28.75 12.887,27.733 15,24.951 15,21.667 c 0,-3.284 -2.114,-6.068 -5.053,-7.083 2.171,-0.75 3.886,-2.465 4.636,-4.636 1.016,2.938 3.8,5.052 7.084,5.052 3.284,0 6.067,-2.113 7.083,-5.051 C 29.766,12.887 32.549,15 35.833,15 39.117,15 41.9,12.887 42.916,9.948 43.932,12.887 46.715,15 50,15 53.285,15 56.068,12.887 57.083,9.949 58.1,12.887 60.882,15 64.166,15 c 3.285,0 6.068,-2.114 7.084,-5.055 1.016,2.941 3.799,5.055 7.084,5.055 3.284,0 6.066,-2.113 7.083,-5.051 0.75,2.17 2.465,3.885 4.636,4.635 -2.94,1.015 -5.053,3.799 -5.053,7.083 0,3.284 2.113,6.066 5.052,7.083 C 87.113,29.766 85,32.549 85,35.833 c 0,3.284 2.113,6.066 5.052,7.083 C 87.113,43.932 85,46.715 85,50 c 0,3.285 2.113,6.068 5.052,7.082 C 87.113,58.1 85,60.881 85,64.166 c 0,3.285 2.113,6.068 5.055,7.084 C 87.113,72.266 85,75.049 85,78.334 c 0,3.283 2.113,6.066 5.052,7.082 z"
   id="path1378"
   style="fill:#190086;fill-opacity:1" />
</g>
</g></g><g
     transform="matrix(5.5445545,0,0,5.5445545,0,1440)"
     id="g1394"><g
       style="fill:#00aad4;fill-opacity:1"
       id="g1392">
<g
   id="g1390"
   style="fill:#00aad4;fill-opacity:1">
	<path
   style="fill:none"
   d="M 90.055,71.25 C 87.113,70.234 85,67.451 85,64.166 85,60.881 87.113,58.1 90.052,57.082 87.113,56.066 85,53.283 85,50 85,46.716 87.113,43.932 90.052,42.917 87.113,41.899 85,39.117 85,35.833 85,32.549 87.113,29.766 90.052,28.75 87.113,27.733 85,24.951 85,21.667 85,18.383 87.113,15.599 90.053,14.584 87.882,13.834 86.167,12.12 85.417,9.949 84.4,12.887 81.618,15 78.334,15 75.049,15 72.266,12.886 71.25,9.945 70.234,12.886 67.451,15 64.166,15 60.882,15 58.1,12.887 57.083,9.949 56.066,12.887 53.284,15 50,15 46.716,15 43.932,12.887 42.917,9.948 41.9,12.887 39.117,15 35.833,15 32.549,15 29.766,12.887 28.75,9.949 27.734,12.887 24.951,15 21.667,15 c -3.284,0 -6.068,-2.114 -7.083,-5.054 -0.75,2.172 -2.465,3.887 -4.636,4.637 2.938,1.016 5.052,3.8 5.052,7.084 0,3.284 -2.114,6.066 -5.052,7.083 2.939,1.016 5.052,3.799 5.052,7.083 0,3.284 -2.113,6.066 -5.052,7.083 C 12.887,43.932 15,46.715 15,50 15,53.285 12.887,56.068 9.949,57.082 12.887,58.1 15,60.881 15,64.166 c 0,3.285 -2.115,6.068 -5.055,7.084 2.941,1.016 5.055,3.799 5.055,7.084 0,3.283 -2.114,6.066 -5.052,7.082 2.17,0.75 3.885,2.465 4.635,4.635 1.016,-2.938 3.8,-5.051 7.084,-5.051 3.284,0 6.067,2.113 7.083,5.051 C 29.766,87.113 32.549,85 35.833,85 39.117,85 41.9,87.113 42.916,90.051 43.932,87.113 46.715,85 50,85 c 3.285,0 6.068,2.113 7.083,5.051 C 58.1,87.113 60.882,85 64.166,85 c 3.285,0 6.068,2.113 7.084,5.055 C 72.266,87.113 75.049,85 78.334,85 c 3.284,0 6.066,2.113 7.083,5.051 0.75,-2.17 2.465,-3.885 4.635,-4.635 C 87.113,84.4 85,81.617 85,78.334 c 0,-3.285 2.113,-6.068 5.055,-7.084 z"
   id="path1386" />
	<path
   d="M 100,21.667 C 100,18.383 97.887,15.599 94.947,14.584 97.887,13.567 100,10.784 100,7.5 100,3.356 96.643,0 92.5,0 89.216,0 86.434,2.112 85.417,5.051 84.4,2.112 81.618,0 78.334,0 75.049,0 72.266,2.114 71.25,5.054 70.234,2.114 67.451,0 64.166,0 60.882,0 58.1,2.112 57.083,5.051 56.066,2.112 53.284,0 50,0 46.716,0 43.932,2.112 42.917,5.052 41.9,2.112 39.117,0 35.833,0 32.549,0 29.766,2.112 28.75,5.051 27.734,2.112 24.951,0 21.667,0 18.383,0 15.599,2.114 14.584,5.053 13.568,2.114 10.784,0 7.5,0 3.357,0 0,3.356 0,7.5 0,10.784 2.114,13.567 5.053,14.583 2.114,15.599 0,18.383 0,21.667 0,24.951 2.113,27.733 5.051,28.75 2.113,29.766 0,32.549 0,35.833 0,39.117 2.113,41.899 5.052,42.916 2.113,43.932 0,46.715 0,50 0,53.285 2.113,56.068 5.051,57.082 2.113,58.1 0,60.881 0,64.166 0,67.451 2.114,70.234 5.054,71.25 2.114,72.266 0,75.049 0,78.334 0,81.617 2.113,84.4 5.051,85.416 2.113,86.434 0,89.215 0,92.5 c 0,4.143 3.357,7.5 7.5,7.5 0.518,0 1.023,-0.053 1.512,-0.152 2.608,-0.533 4.716,-2.426 5.572,-4.898 1.015,2.938 3.799,5.051 7.083,5.051 3.284,0 6.067,-2.111 7.083,-5.051 1.016,2.938 3.799,5.051 7.083,5.051 3.284,0 6.067,-2.111 7.083,-5.051 1.016,2.937 3.799,5.05 7.084,5.05 3.285,0 6.068,-2.113 7.083,-5.053 1.017,2.938 3.799,5.053 7.083,5.053 3.285,0 6.068,-2.115 7.084,-5.055 1.016,2.939 3.799,5.055 7.084,5.055 3.284,0 6.066,-2.113 7.083,-5.053 1.017,2.94 3.799,5.053 7.083,5.053 4.143,0 7.5,-3.357 7.5,-7.5 0,-3.285 -2.113,-6.066 -5.052,-7.084 C 97.887,84.4 100,81.617 100,78.334 100,75.049 97.887,72.266 94.945,71.25 97.884,70.234 100,67.451 100,64.166 100,60.881 97.887,58.1 94.948,57.082 97.887,56.066 100,53.283 100,50 100,46.716 97.887,43.932 94.948,42.917 97.886,41.899 100,39.117 100,35.833 100,32.549 97.887,29.766 94.948,28.75 97.887,27.733 100,24.951 100,21.667 Z m -9.948,63.749 c -2.17,0.75 -3.885,2.465 -4.635,4.635 C 84.4,87.113 81.618,85 78.334,85 75.049,85 72.266,87.113 71.25,90.055 70.234,87.113 67.451,85 64.166,85 60.882,85 58.1,87.113 57.083,90.051 56.066,87.113 53.284,85 50,85 46.716,85 43.932,87.113 42.917,90.051 41.9,87.113 39.117,85 35.833,85 32.549,85 29.766,87.113 28.75,90.051 27.734,87.113 24.951,85 21.667,85 18.383,85 15.599,87.113 14.584,90.051 13.834,87.881 12.119,86.166 9.949,85.416 12.887,84.4 15,81.617 15,78.334 15,75.049 12.885,72.266 9.945,71.25 12.886,70.234 15,67.451 15,64.166 15,60.881 12.886,58.1 9.948,57.082 12.887,56.066 15,53.283 15,50 15,46.716 12.887,43.932 9.948,42.917 12.887,41.899 15,39.117 15,35.833 15,32.549 12.887,29.766 9.949,28.75 12.887,27.733 15,24.951 15,21.667 c 0,-3.284 -2.114,-6.068 -5.053,-7.083 2.171,-0.75 3.886,-2.465 4.636,-4.636 1.016,2.938 3.8,5.052 7.084,5.052 3.284,0 6.067,-2.113 7.083,-5.051 C 29.766,12.887 32.549,15 35.833,15 39.117,15 41.9,12.887 42.916,9.948 43.932,12.887 46.715,15 50,15 53.285,15 56.068,12.887 57.083,9.949 58.1,12.887 60.882,15 64.166,15 c 3.285,0 6.068,-2.114 7.084,-5.055 1.016,2.941 3.799,5.055 7.084,5.055 3.284,0 6.066,-2.113 7.083,-5.051 0.75,2.17 2.465,3.885 4.636,4.635 -2.94,1.015 -5.053,3.799 -5.053,7.083 0,3.284 2.113,6.066 5.052,7.083 C 87.113,29.766 85,32.549 85,35.833 c 0,3.284 2.113,6.066 5.052,7.083 C 87.113,43.932 85,46.715 85,50 c 0,3.285 2.113,6.068 5.052,7.082 C 87.113,58.1 85,60.881 85,64.166 c 0,3.285 2.113,6.068 5.055,7.084 C 87.113,72.266 85,75.049 85,78.334 c 0,3.283 2.113,6.066 5.052,7.082 z"
   id="path1388"
   style="fill:#1d009c;fill-opacity:1" />
</g>
</g></g><g
     transform="matrix(2.4,0,0,2.4,160,160)"
     id="g1418"><g
       style="fill:#00aad4;fill-opacity:1"
       id="g1416">
<g
   id="g1414"
   style="fill:#00aad4;fill-opacity:1">
	<circle
   cx="17.33"
   cy="17.33"
   r="16.83"
   id="circle1396"
   style="fill:#00aad4;fill-opacity:1" />
	<circle
   cx="50"
   cy="17.33"
   r="16.83"
   id="circle1398"
   style="fill:#2d00f2;fill-opacity:1" />
	<circle
   cx="82.669998"
   cy="17.33"
   r="16.83"
   id="circle1400"
   style="fill:#00aad4;fill-opacity:1" />
	<circle
   cx="17.33"
   cy="82.669998"
   r="16.83"
   id="circle1402"
   style="fill:#00aad4;fill-opacity:1" />
	<circle
   cx="50"
   cy="82.669998"
   r="16.83"
   id="circle1404"
   style="fill:#2d00f2;fill-opacity:1" />
	<circle
   cx="82.669998"
   cy="82.669998"
   r="16.83"
   id="circle1406"
   style="fill:#00aad4;fill-opacity:1" />
	<circle
   cx="17.33"
   cy="50"
   r="16.83"
   id="circle1408"
   style="fill:#2d00f2;fill-opacity:1" />
	<circle
   cx="50"
   cy="50"
   r="16.83"
   id="circle1410"
   style="fill:#00aad4;fill-opacity:1" />
	<circle
   cx="82.669998"
   cy="50"
   r="16.83"
   id="circle1412"
   style="fill:#2d00f2;fill-opacity:1" />
</g>
</g></g><g
     transform="matrix(2.4,0,0,2.4,1600,160)"
     id="g1442"><g
       style="fill:#00aad4;fill-opacity:1"
       id="g1440">
<g
   id="g1438"
   style="fill:#00aad4;fill-opacity:1">
	<circle
   cx="17.33"
   cy="17.33"
   r="16.83"
   id="circle1420"
   style="fill:#1d009c;fill-opacity:1" />
	<circle
   cx="50"
   cy="17.33"
   r="16.83"
   id="circle1422"
   style="fill:#00aad4;fill-opacity:1" />
	<circle
   cx="82.669998"
   cy="17.33"
   r="16.83"
   id="circle1424"
   style="fill:#1d009c;fill-opacity:1" />
	<circle
   cx="17.33"
   cy="82.669998"
   r="16.83"
   id="circle1426"
   style="fill:#1d009c;fill-opacity:1" />
	<circle
   cx="50"
   cy="82.669998"
   r="16.83"
   id="circle1428"
   style="fill:#00aad4;fill-opacity:1" />
	<circle
   cx="82.669998"
   cy="82.669998"
   r="16.83"
   id="circle1430"
   style="fill:#1d009c;fill-opacity:1" />
	<circle
   cx="17.33"
   cy="50"
   r="16.83"
   id="circle1432"
   style="fill:#00aad4;fill-opacity:1" />
	<circle
   cx="50"
   cy="50"
   r="16.83"
   id="circle1434"
   style="fill:#1d009c;fill-opacity:1" />
	<circle
   cx="82.669998"
   cy="50"
   r="16.83"
   id="circle1436"
   style="fill:#00aad4;fill-opacity:1" />
</g>
</g></g><g
     transform="matrix(2.4,0,0,2.4,160,1600)"
     id="g1466"><g
       style="fill:#00aad4;fill-opacity:1"
       id="g1464">
<g
   id="g1462"
   style="fill:#00aad4;fill-opacity:1">
	<circle
   cx="17.33"
   cy="17.33"
   r="16.83"
   id="circle1444"
   style="fill:#00aad4;fill-opacity:1" />
	<circle
   cx="50"
   cy="17.33"
   r="16.83"
   id="circle1446"
   style="fill:#2d00f2;fill-opacity:1" />
	<circle
   cx="82.669998"
   cy="17.33"
   r="16.83"
   id="circle1448"
   style="fill:#00aad4;fill-opacity:1" />
	<circle
   cx="17.33"
   cy="82.669998"
   r="16.83"
   id="circle1450"
   style="fill:#00aad4;fill-opacity:1" />
	<circle
   cx="50"
   cy="82.669998"
   r="16.83"
   id="circle1452"
   style="fill:#2d00f2;fill-opacity:1" />
	<circle
   cx="82.669998"
   cy="82.669998"
   r="16.83"
   id="circle1454"
   style="fill:#00aad4;fill-opacity:1" />
	<circle
   cx="17.33"
   cy="50"
   r="16.83"
   id="circle1456"
   style="fill:#2d00f2;fill-opacity:1" />
	<circle
   cx="50"
   cy="50"
   r="16.83"
   id="circle1458"
   style="fill:#2d00f2;fill-opacity:1" />
	<circle
   cx="82.669998"
   cy="50"
   r="16.83"
   id="circle1460"
   style="fill:#2d00f2;fill-opacity:1" />
</g>
</g></g></g><g
   inkscape:groupmode="layer"
   id="layer1"
   inkscape:label="Layer 1" /></svg>
